<?xml version="1.0" encoding="UTF-8"?>
<svg version="1.1" xmlns="http://www.w3.org/2000/svg" width="509" height="508">
<path d="M0 0 C167.97 0 335.94 0 509 0 C509 167.64 509 335.28 509 508 C341.03 508 173.06 508 0 508 C0 340.36 0 172.72 0 0 Z " fill="#000000" transform="translate(0,0)"/>
<path d="M0 0 C93.06 0 186.12 0 282 0 C282 9.57 282 19.14 282 29 C281.34 29 280.68 29 280 29 C280 29.66 280 30.32 280 31 C276.7 31 273.4 31 270 31 C270 32.98 270 34.96 270 37 C270.66 37 271.32 37 272 37 C272 37.66 272 38.32 272 39 C271.34 39 270.68 39 270 39 C270 39.66 270 40.32 270 41 C266.7 41 263.4 41 260 41 C260 34.4 260 27.8 260 21 C253.4 21 246.8 21 240 21 C240 24.3 240 27.6 240 31 C236.7 31 233.4 31 230 31 C230 34.3 230 37.6 230 41 C236.6 41 243.2 41 250 41 C250 44.3 250 47.6 250 51 C253.3 51 256.6 51 260 51 C260 60.9 260 70.8 260 81 C263.3 81 266.6 81 270 81 C270 81.66 270 82.32 270 83 C270.66 83 271.32 83 272 83 C272 83.66 272 84.32 272 85 C271.34 85 270.68 85 270 85 C270 86.32 270 87.64 270 89 C270.66 89 271.32 89 272 89 C272 89.66 272 90.32 272 91 C271.34 91 270.68 91 270 91 C270 91.66 270 92.32 270 93 C266.7 93 263.4 93 260 93 C260 96.3 260 99.6 260 103 C263.3 103 266.6 103 270 103 C270 105.64 270 108.28 270 111 C270.66 111 271.32 111 272 111 C272 111.66 272 112.32 272 113 C274.64 113 277.28 113 280 113 C280 109.7 280 106.4 280 103 C287.26 103 294.52 103 302 103 C302 99.7 302 96.4 302 93 C304.64 93 307.28 93 310 93 C310 92.34 310 91.68 310 91 C310.66 91 311.32 91 312 91 C312 87.7 312 84.4 312 81 C321.9 81 331.8 81 342 81 C342 81.66 342 82.32 342 83 C342.66 83 343.32 83 344 83 C344 86.3 344 89.6 344 93 C336.74 93 329.48 93 322 93 C322 99.6 322 106.2 322 113 C318.7 113 315.4 113 312 113 C312 119.6 312 126.2 312 133 C315.3 133 318.6 133 322 133 C322 136.96 322 140.92 322 145 C318.7 145 315.4 145 312 145 C312 141.7 312 138.4 312 135 C308.7 135 305.4 135 302 135 C302 144.9 302 154.8 302 165 C298.7 165 295.4 165 292 165 C292 168.3 292 171.6 292 175 C278.14 175 264.28 175 250 175 C250 178.3 250 181.6 250 185 C246.7 185 243.4 185 240 185 C240 188.96 240 192.92 240 197 C233.4 197 226.8 197 220 197 C220 196.34 220 195.68 220 195 C219.34 195 218.68 195 218 195 C218 191.7 218 188.4 218 185 C214.7 185 211.4 185 208 185 C208 181.7 208 178.4 208 175 C204.7 175 201.4 175 198 175 C198 178.3 198 181.6 198 185 C194.7 185 191.4 185 188 185 C188 175.1 188 165.2 188 155 C191.3 155 194.6 155 198 155 C198 144.44 198 133.88 198 123 C191.4 123 184.8 123 178 123 C178 116.4 178 109.8 178 103 C174.7 103 171.4 103 168 103 C168 106.3 168 109.6 168 113 C164.04 113 160.08 113 156 113 C156 109.7 156 106.4 156 103 C159.3 103 162.6 103 166 103 C166 99.7 166 96.4 166 93 C169.3 93 172.6 93 176 93 C176 92.34 176 91.68 176 91 C176.66 91 177.32 91 178 91 C178 85.06 178 79.12 178 73 C177.34 73 176.68 73 176 73 C176 72.34 176 71.68 176 71 C172.7 71 169.4 71 166 71 C166 67.7 166 64.4 166 61 C163.36 61 160.72 61 158 61 C158 61.66 158 62.32 158 63 C157.34 63 156.68 63 156 63 C156 69.6 156 76.2 156 83 C152.7 83 149.4 83 146 83 C146 72.44 146 61.88 146 51 C142.7 51 139.4 51 136 51 C136 64.2 136 77.4 136 91 C136.66 91 137.32 91 138 91 C138 91.66 138 92.32 138 93 C140.64 93 143.28 93 146 93 C146 96.3 146 99.6 146 103 C139.4 103 132.8 103 126 103 C126 99.7 126 96.4 126 93 C112.14 93 98.28 93 84 93 C84 89.7 84 86.4 84 83 C74.1 83 64.2 83 54 83 C54 82.34 54 81.68 54 81 C53.34 81 52.68 81 52 81 C52 77.7 52 74.4 52 71 C49.36 71 46.72 71 44 71 C44 71.66 44 72.32 44 73 C43.34 73 42.68 73 42 73 C42 78.94 42 84.88 42 91 C42.66 91 43.32 91 44 91 C44 91.66 44 92.32 44 93 C47.3 93 50.6 93 54 93 C54 96.3 54 99.6 54 103 C50.04 103 46.08 103 42 103 C42 106.3 42 109.6 42 113 C38.7 113 35.4 113 32 113 C32 116.3 32 119.6 32 123 C28.7 123 25.4 123 22 123 C22 129.6 22 136.2 22 143 C25.3 143 28.6 143 32 143 C32 139.7 32 136.4 32 133 C38.6 133 45.2 133 52 133 C52 129.7 52 126.4 52 123 C59.26 123 66.52 123 74 123 C74 119.7 74 116.4 74 113 C77.3 113 80.6 113 84 113 C84 123.56 84 134.12 84 145 C80.7 145 77.4 145 74 145 C74 148.3 74 151.6 74 155 C80.6 155 87.2 155 94 155 C94 158.3 94 161.6 94 165 C90.7 165 87.4 165 84 165 C84 168.3 84 171.6 84 175 C87.3 175 90.6 175 94 175 C94 181.6 94 188.2 94 195 C97.3 195 100.6 195 104 195 C104 185.1 104 175.2 104 165 C111.26 165 118.52 165 126 165 C126 168.3 126 171.6 126 175 C129.3 175 132.6 175 136 175 C136 185.56 136 196.12 136 207 C142.6 207 149.2 207 156 207 C156 210.3 156 213.6 156 217 C152.7 217 149.4 217 146 217 C146 226.9 146 236.8 146 247 C149.3 247 152.6 247 156 247 C156 243.7 156 240.4 156 237 C159.3 237 162.6 237 166 237 C166 230.4 166 223.8 166 217 C169.96 217 173.92 217 178 217 C178 220.3 178 223.6 178 227 C184.6 227 191.2 227 198 227 C198 230.3 198 233.6 198 237 C188.1 237 178.2 237 168 237 C168 240.3 168 243.6 168 247 C167.34 247 166.68 247 166 247 C166 247.66 166 248.32 166 249 C162.7 249 159.4 249 156 249 C156 254.94 156 260.88 156 267 C156.66 267 157.32 267 158 267 C158 267.66 158 268.32 158 269 C160.64 269 163.28 269 166 269 C166 265.7 166 262.4 166 259 C166.66 259 167.32 259 168 259 C168 258.34 168 257.68 168 257 C171.3 257 174.6 257 178 257 C178 253.7 178 250.4 178 247 C181.3 247 184.6 247 188 247 C188 250.96 188 254.92 188 259 C184.7 259 181.4 259 178 259 C178 262.3 178 265.6 178 269 C174.7 269 171.4 269 168 269 C168 272.3 168 275.6 168 279 C171.3 279 174.6 279 178 279 C178 292.86 178 306.72 178 321 C174.7 321 171.4 321 168 321 C168 320.34 168 319.68 168 319 C167.34 319 166.68 319 166 319 C166 312.4 166 305.8 166 299 C163.36 299 160.72 299 158 299 C158 299.66 158 300.32 158 301 C157.34 301 156.68 301 156 301 C156 304.3 156 307.6 156 311 C152.7 311 149.4 311 146 311 C146 307.04 146 303.08 146 299 C149.3 299 152.6 299 156 299 C156 292.4 156 285.8 156 279 C142.8 279 129.6 279 116 279 C116 285.6 116 292.2 116 299 C112.7 299 109.4 299 106 299 C106 305.6 106 312.2 106 319 C105.34 319 104.68 319 104 319 C104 319.66 104 320.32 104 321 C100.7 321 97.4 321 94 321 C94 324.3 94 327.6 94 331 C90.7 331 87.4 331 84 331 C84 323.74 84 316.48 84 309 C87.3 309 90.6 309 94 309 C94 305.7 94 302.4 94 299 C90.7 299 87.4 299 84 299 C84 295.7 84 292.4 84 289 C80.7 289 77.4 289 74 289 C74 282.4 74 275.8 74 269 C63.44 269 52.88 269 42 269 C42 272.3 42 275.6 42 279 C35.4 279 28.8 279 22 279 C22 275.7 22 272.4 22 269 C25.3 269 28.6 269 32 269 C32 265.7 32 262.4 32 259 C32.66 259 33.32 259 34 259 C34 258.34 34 257.68 34 257 C43.9 257 53.8 257 64 257 C64 254.36 64 251.72 64 249 C60.7 249 57.4 249 54 249 C54 248.34 54 247.68 54 247 C53.34 247 52.68 247 52 247 C52 243.7 52 240.4 52 237 C55.96 237 59.92 237 64 237 C64 240.3 64 243.6 64 247 C70.6 247 77.2 247 84 247 C84 243.7 84 240.4 84 237 C80.7 237 77.4 237 74 237 C74 233.7 74 230.4 74 227 C64.1 227 54.2 227 44 227 C44 227.66 44 228.32 44 229 C43.34 229 42.68 229 42 229 C42 231.64 42 234.28 42 237 C38.7 237 35.4 237 32 237 C32 219.84 32 202.68 32 185 C35.3 185 38.6 185 42 185 C42 181.7 42 178.4 42 175 C38.7 175 35.4 175 32 175 C32 168.4 32 161.8 32 155 C28.7 155 25.4 155 22 155 C22 151.7 22 148.4 22 145 C15.4 145 8.8 145 2 145 C2 148.3 2 151.6 2 155 C5.3 155 8.6 155 12 155 C12 161.6 12 168.2 12 175 C15.3 175 18.6 175 22 175 C22 185.56 22 196.12 22 207 C18.7 207 15.4 207 12 207 C12 210.3 12 213.6 12 217 C8.7 217 5.4 217 2 217 C2 216.34 2 215.68 2 215 C1.34 215 0.68 215 0 215 C0 212.36 0 209.72 0 207 C3.3 207 6.6 207 10 207 C10 206.34 10 205.68 10 205 C10.66 205 11.32 205 12 205 C12 202.36 12 199.72 12 197 C5.4 197 -1.2 197 -8 197 C-8 196.34 -8 195.68 -8 195 C-8.66 195 -9.32 195 -10 195 C-10 175.2 -10 155.4 -10 135 C-13.3 135 -16.6 135 -20 135 C-20 144.9 -20 154.8 -20 165 C-23.3 165 -26.6 165 -30 165 C-30 168.3 -30 171.6 -30 175 C-33.3 175 -36.6 175 -40 175 C-40 168.4 -40 161.8 -40 155 C-47.26 155 -54.52 155 -62 155 C-62 148.4 -62 141.8 -62 135 C-67.94 135 -73.88 135 -80 135 C-80 134.34 -80 133.68 -80 133 C-80.66 133 -81.32 133 -82 133 C-82 123.1 -82 113.2 -82 103 C-78.7 103 -75.4 103 -72 103 C-72 99.7 -72 96.4 -72 93 C-75.3 93 -78.6 93 -82 93 C-82 89.04 -82 85.08 -82 81 C-78.7 81 -75.4 81 -72 81 C-72 84.3 -72 87.6 -72 91 C-71.34 91 -70.68 91 -70 91 C-70 91.66 -70 92.32 -70 93 C-67.36 93 -64.72 93 -62 93 C-62 89.7 -62 86.4 -62 83 C-61.34 83 -60.68 83 -60 83 C-60 82.34 -60 81.68 -60 81 C-56.7 81 -53.4 81 -50 81 C-50 78.36 -50 75.72 -50 73 C-50.66 73 -51.32 73 -52 73 C-52 72.34 -52 71.68 -52 71 C-55.3 71 -58.6 71 -62 71 C-62 67.7 -62 64.4 -62 61 C-58.04 61 -54.08 61 -50 61 C-50 64.3 -50 67.6 -50 71 C-46.7 71 -43.4 71 -40 71 C-40 64.4 -40 57.8 -40 51 C-36.7 51 -33.4 51 -30 51 C-30 47.7 -30 44.4 -30 41 C-26.7 41 -23.4 41 -20 41 C-20 44.3 -20 47.6 -20 51 C-13.4 51 -6.8 51 0 51 C0 47.7 0 44.4 0 41 C-3.3 41 -6.6 41 -10 41 C-10 37.7 -10 34.4 -10 31 C-19.9 31 -29.8 31 -40 31 C-40 34.3 -40 37.6 -40 41 C-43.3 41 -46.6 41 -50 41 C-50 44.3 -50 47.6 -50 51 C-53.96 51 -57.92 51 -62 51 C-62 41.1 -62 31.2 -62 21 C-61.34 21 -60.68 21 -60 21 C-60 20.34 -60 19.68 -60 19 C-56.7 19 -53.4 19 -50 19 C-50 22.3 -50 25.6 -50 29 C-46.7 29 -43.4 29 -40 29 C-40 25.7 -40 22.4 -40 19 C-36.7 19 -33.4 19 -30 19 C-30 15.7 -30 12.4 -30 9 C-26.7 9 -23.4 9 -20 9 C-20 12.3 -20 15.6 -20 19 C-16.7 19 -13.4 19 -10 19 C-10 15.7 -10 12.4 -10 9 C-6.7 9 -3.4 9 0 9 C0 6.03 0 3.06 0 0 Z " fill="#000000" transform="translate(145,0)"/>
<path d="M0 0 C3.3 0 6.6 0 10 0 C10 10.56 10 21.12 10 32 C13.3 32 16.6 32 20 32 C20 25.4 20 18.8 20 12 C20.66 12 21.32 12 22 12 C22 11.34 22 10.68 22 10 C24.64 10 27.28 10 30 10 C30 13.3 30 16.6 30 20 C33.3 20 36.6 20 40 20 C40 20.66 40 21.32 40 22 C40.66 22 41.32 22 42 22 C42 27.94 42 33.88 42 40 C41.34 40 40.68 40 40 40 C40 40.66 40 41.32 40 42 C36.7 42 33.4 42 30 42 C30 45.3 30 48.6 30 52 C26.7 52 23.4 52 20 52 C20 55.3 20 58.6 20 62 C23.96 62 27.92 62 32 62 C32 58.7 32 55.4 32 52 C35.3 52 38.6 52 42 52 C42 58.6 42 65.2 42 72 C48.6 72 55.2 72 62 72 C62 82.56 62 93.12 62 104 C58.7 104 55.4 104 52 104 C52 113.9 52 123.8 52 134 C55.3 134 58.6 134 62 134 C62 130.7 62 127.4 62 124 C65.3 124 68.6 124 72 124 C72 127.3 72 130.6 72 134 C75.3 134 78.6 134 82 134 C82 137.3 82 140.6 82 144 C82.66 144 83.32 144 84 144 C84 144.66 84 145.32 84 146 C90.6 146 97.2 146 104 146 C104 142.04 104 138.08 104 134 C107.3 134 110.6 134 114 134 C114 140.6 114 147.2 114 154 C113.34 154 112.68 154 112 154 C112 154.66 112 155.32 112 156 C109.36 156 106.72 156 104 156 C104 162.6 104 169.2 104 176 C110.6 176 117.2 176 124 176 C124 172.7 124 169.4 124 166 C127.3 166 130.6 166 134 166 C134 186.46 134 206.92 134 228 C130.7 228 127.4 228 124 228 C124 234.6 124 241.2 124 248 C127.96 248 131.92 248 136 248 C136 247.34 136 246.68 136 246 C135.34 246 134.68 246 134 246 C134 244.02 134 242.04 134 240 C134.66 240 135.32 240 136 240 C136 239.34 136 238.68 136 238 C139.3 238 142.6 238 146 238 C146 234.7 146 231.4 146 228 C152.6 228 159.2 228 166 228 C166 237.9 166 247.8 166 258 C152.14 258 138.28 258 124 258 C124 261.96 124 265.92 124 270 C120.7 270 117.4 270 114 270 C114 279.9 114 289.8 114 300 C110.7 300 107.4 300 104 300 C104 303.3 104 306.6 104 310 C90.14 310 76.28 310 62 310 C62 303.4 62 296.8 62 290 C58.7 290 55.4 290 52 290 C52 286.7 52 283.4 52 280 C44.74 280 37.48 280 30 280 C30 286.6 30 293.2 30 300 C36.6 300 43.2 300 50 300 C50 300.66 50 301.32 50 302 C50.66 302 51.32 302 52 302 C52 304.64 52 307.28 52 310 C48.7 310 45.4 310 42 310 C42 317.26 42 324.52 42 332 C45.3 332 48.6 332 52 332 C52 335.3 52 338.6 52 342 C55.3 342 58.6 342 62 342 C62 348.6 62 355.2 62 362 C55.4 362 48.8 362 42 362 C42 358.7 42 355.4 42 352 C38.7 352 35.4 352 32 352 C32 348.7 32 345.4 32 342 C24.74 342 17.48 342 10 342 C10 345.3 10 348.6 10 352 C6.7 352 3.4 352 0 352 C0 348.7 0 345.4 0 342 C-3.3 342 -6.6 342 -10 342 C-10 338.7 -10 335.4 -10 332 C-13.96 332 -17.92 332 -22 332 C-22 335.3 -22 338.6 -22 342 C-28.6 342 -35.2 342 -42 342 C-42 345.3 -42 348.6 -42 352 C-45.3 352 -48.6 352 -52 352 C-52 345.4 -52 338.8 -52 332 C-45.4 332 -38.8 332 -32 332 C-32 331.34 -32 330.68 -32 330 C-31.34 330 -30.68 330 -30 330 C-30 327.36 -30 324.72 -30 322 C-30.66 322 -31.32 322 -32 322 C-32 321.34 -32 320.68 -32 320 C-41.9 320 -51.8 320 -62 320 C-62 323.96 -62 327.92 -62 332 C-65.3 332 -68.6 332 -72 332 C-72 321.44 -72 310.88 -72 300 C-69.36 300 -66.72 300 -64 300 C-64 300.66 -64 301.32 -64 302 C-63.34 302 -62.68 302 -62 302 C-62 305.3 -62 308.6 -62 312 C-58.7 312 -55.4 312 -52 312 C-52 301.44 -52 290.88 -52 280 C-48.7 280 -45.4 280 -42 280 C-42 276.7 -42 273.4 -42 270 C-38.7 270 -35.4 270 -32 270 C-32 269.34 -32 268.68 -32 268 C-31.34 268 -30.68 268 -30 268 C-30 261.4 -30 254.8 -30 248 C-26.7 248 -23.4 248 -20 248 C-20 241.4 -20 234.8 -20 228 C-6.8 228 6.4 228 20 228 C20 234.6 20 241.2 20 248 C16.7 248 13.4 248 10 248 C10 251.96 10 255.92 10 260 C13.3 260 16.6 260 20 260 C20 256.7 20 253.4 20 250 C20.66 250 21.32 250 22 250 C22 249.34 22 248.68 22 248 C24.64 248 27.28 248 30 248 C30 254.6 30 261.2 30 268 C30.66 268 31.32 268 32 268 C32 268.66 32 269.32 32 270 C35.3 270 38.6 270 42 270 C42 256.14 42 242.28 42 228 C38.7 228 35.4 228 32 228 C32 224.7 32 221.4 32 218 C35.3 218 38.6 218 42 218 C42 214.7 42 211.4 42 208 C45.3 208 48.6 208 52 208 C52 204.04 52 200.08 52 196 C48.7 196 45.4 196 42 196 C42 199.3 42 202.6 42 206 C38.7 206 35.4 206 32 206 C32 206.66 32 207.32 32 208 C31.34 208 30.68 208 30 208 C30 211.3 30 214.6 30 218 C27.36 218 24.72 218 22 218 C22 217.34 22 216.68 22 216 C21.34 216 20.68 216 20 216 C20 210.06 20 204.12 20 198 C23.3 198 26.6 198 30 198 C30 197.34 30 196.68 30 196 C30.66 196 31.32 196 32 196 C32 192.7 32 189.4 32 186 C41.9 186 51.8 186 62 186 C62 182.7 62 179.4 62 176 C55.4 176 48.8 176 42 176 C42 172.7 42 169.4 42 166 C38.04 166 34.08 166 30 166 C30 172.6 30 179.2 30 186 C26.7 186 23.4 186 20 186 C20 189.3 20 192.6 20 196 C16.7 196 13.4 196 10 196 C10 186.1 10 176.2 10 166 C13.3 166 16.6 166 20 166 C20 162.7 20 159.4 20 156 C13.4 156 6.8 156 0 156 C0 145.44 0 134.88 0 124 C-3.3 124 -6.6 124 -10 124 C-10 120.7 -10 117.4 -10 114 C-17.26 114 -24.52 114 -32 114 C-32 123.9 -32 133.8 -32 144 C-35.3 144 -38.6 144 -42 144 C-42 137.4 -42 130.8 -42 124 C-45.3 124 -48.6 124 -52 124 C-52 120.7 -52 117.4 -52 114 C-48.7 114 -45.4 114 -42 114 C-42 110.7 -42 107.4 -42 104 C-48.6 104 -55.2 104 -62 104 C-62 100.7 -62 97.4 -62 94 C-58.7 94 -55.4 94 -52 94 C-52 83.44 -52 72.88 -52 62 C-55.3 62 -58.6 62 -62 62 C-62 65.3 -62 68.6 -62 72 C-69.26 72 -76.52 72 -84 72 C-84 75.3 -84 78.6 -84 82 C-90.6 82 -97.2 82 -104 82 C-104 85.3 -104 88.6 -104 92 C-107.3 92 -110.6 92 -114 92 C-114 85.4 -114 78.8 -114 72 C-110.7 72 -107.4 72 -104 72 C-104 68.7 -104 65.4 -104 62 C-100.7 62 -97.4 62 -94 62 C-94 58.7 -94 55.4 -94 52 C-90.04 52 -86.08 52 -82 52 C-82 48.7 -82 45.4 -82 42 C-85.3 42 -88.6 42 -92 42 C-92 41.34 -92 40.68 -92 40 C-92.66 40 -93.32 40 -94 40 C-94 34.06 -94 28.12 -94 22 C-93.34 22 -92.68 22 -92 22 C-92 21.34 -92 20.68 -92 20 C-89.36 20 -86.72 20 -84 20 C-84 23.3 -84 26.6 -84 30 C-83.34 30 -82.68 30 -82 30 C-82 30.66 -82 31.32 -82 32 C-72.1 32 -62.2 32 -52 32 C-52 35.3 -52 38.6 -52 42 C-38.14 42 -24.28 42 -10 42 C-10 45.3 -10 48.6 -10 52 C-3.4 52 3.2 52 10 52 C10 48.7 10 45.4 10 42 C7.36 42 4.72 42 2 42 C2 41.34 2 40.68 2 40 C1.34 40 0.68 40 0 40 C0 26.8 0 13.6 0 0 Z " fill="#FEFEFE" transform="translate(281,51)"/>
<path d="M0 0 C47.85 0 95.7 0 145 0 C145 2.97 145 5.94 145 9 C141.7 9 138.4 9 135 9 C135 12.3 135 15.6 135 19 C131.7 19 128.4 19 125 19 C125 15.7 125 12.4 125 9 C121.7 9 118.4 9 115 9 C115 12.3 115 15.6 115 19 C111.7 19 108.4 19 105 19 C105 22.3 105 25.6 105 29 C101.7 29 98.4 29 95 29 C95 25.7 95 22.4 95 19 C91.7 19 88.4 19 85 19 C85 19.66 85 20.32 85 21 C84.34 21 83.68 21 83 21 C83 30.9 83 40.8 83 51 C86.96 51 90.92 51 95 51 C95 47.7 95 44.4 95 41 C98.3 41 101.6 41 105 41 C105 37.7 105 34.4 105 31 C114.9 31 124.8 31 135 31 C135 34.3 135 37.6 135 41 C138.3 41 141.6 41 145 41 C145 44.3 145 47.6 145 51 C138.4 51 131.8 51 125 51 C125 47.7 125 44.4 125 41 C121.7 41 118.4 41 115 41 C115 44.3 115 47.6 115 51 C111.7 51 108.4 51 105 51 C105 57.6 105 64.2 105 71 C101.7 71 98.4 71 95 71 C95 67.7 95 64.4 95 61 C91.04 61 87.08 61 83 61 C83 64.3 83 67.6 83 71 C86.3 71 89.6 71 93 71 C93 71.66 93 72.32 93 73 C93.66 73 94.32 73 95 73 C95 75.64 95 78.28 95 81 C91.7 81 88.4 81 85 81 C85 81.66 85 82.32 85 83 C84.34 83 83.68 83 83 83 C83 86.3 83 89.6 83 93 C80.36 93 77.72 93 75 93 C75 92.34 75 91.68 75 91 C74.34 91 73.68 91 73 91 C73 87.7 73 84.4 73 81 C69.7 81 66.4 81 63 81 C63 84.96 63 88.92 63 93 C66.3 93 69.6 93 73 93 C73 96.3 73 99.6 73 103 C69.7 103 66.4 103 63 103 C63 106.3 63 109.6 63 113 C59.7 113 56.4 113 53 113 C53 106.4 53 99.8 53 93 C49.7 93 46.4 93 43 93 C43 89.04 43 85.08 43 81 C29.14 81 15.28 81 1 81 C1 88.26 1 95.52 1 103 C4.3 103 7.6 103 11 103 C11 106.3 11 109.6 11 113 C7.7 113 4.4 113 1 113 C1 123.56 1 134.12 1 145 C4.3 145 7.6 145 11 145 C11 148.3 11 151.6 11 155 C7.7 155 4.4 155 1 155 C1 164.9 1 174.8 1 185 C4.3 185 7.6 185 11 185 C11 188.96 11 192.92 11 197 C14.3 197 17.6 197 21 197 C21 196.34 21 195.68 21 195 C21.66 195 22.32 195 23 195 C23 189.72 23 184.44 23 179 C22.34 179 21.68 179 21 179 C21 178.34 21 177.68 21 177 C21.66 177 22.32 177 23 177 C23 176.34 23 175.68 23 175 C25.64 175 28.28 175 31 175 C31 188.86 31 202.72 31 217 C27.7 217 24.4 217 21 217 C21 220.3 21 223.6 21 227 C17.7 227 14.4 227 11 227 C11 230.3 11 233.6 11 237 C14.3 237 17.6 237 21 237 C21 247.56 21 258.12 21 269 C17.7 269 14.4 269 11 269 C11 272.3 11 275.6 11 279 C17.6 279 24.2 279 31 279 C31 282.3 31 285.6 31 289 C34.96 289 38.92 289 43 289 C43 302.86 43 316.72 43 331 C39.7 331 36.4 331 33 331 C33 324.4 33 317.8 33 311 C32.34 311 31.68 311 31 311 C31 310.34 31 309.68 31 309 C27.7 309 24.4 309 21 309 C21 308.34 21 307.68 21 307 C21.66 307 22.32 307 23 307 C23 301.72 23 296.44 23 291 C22.34 291 21.68 291 21 291 C21 290.34 21 289.68 21 289 C17.7 289 14.4 289 11 289 C11 292.3 11 295.6 11 299 C7.7 299 4.4 299 1 299 C1 302.96 1 306.92 1 311 C7.6 311 14.2 311 21 311 C21 314.3 21 317.6 21 321 C14.4 321 7.8 321 1 321 C1 330.9 1 340.8 1 351 C4.3 351 7.6 351 11 351 C11 347.7 11 344.4 11 341 C14.3 341 17.6 341 21 341 C21 347.6 21 354.2 21 361 C21.66 361 22.32 361 23 361 C23 361.66 23 362.32 23 363 C25.64 363 28.28 363 31 363 C31 362.34 31 361.68 31 361 C31.66 361 32.32 361 33 361 C33 357.7 33 354.4 33 351 C35.64 351 38.28 351 41 351 C41 351.66 41 352.32 41 353 C41.66 353 42.32 353 43 353 C43 359.6 43 366.2 43 373 C49.6 373 56.2 373 63 373 C63 376.3 63 379.6 63 383 C66.3 383 69.6 383 73 383 C73 386.3 73 389.6 73 393 C80.26 393 87.52 393 95 393 C95 386.4 95 379.8 95 373 C94.34 373 93.68 373 93 373 C93 372.34 93 371.68 93 371 C90.36 371 87.72 371 85 371 C85 371.66 85 372.32 85 373 C84.34 373 83.68 373 83 373 C83 376.3 83 379.6 83 383 C80.36 383 77.72 383 75 383 C75 382.34 75 381.68 75 381 C74.34 381 73.68 381 73 381 C73 377.7 73 374.4 73 371 C69.7 371 66.4 371 63 371 C63 368.36 63 365.72 63 363 C69.6 363 76.2 363 83 363 C83 362.34 83 361.68 83 361 C83.66 361 84.32 361 85 361 C85 358.36 85 355.72 85 353 C84.34 353 83.68 353 83 353 C83 352.34 83 351.68 83 351 C76.4 351 69.8 351 63 351 C63 347.7 63 344.4 63 341 C66.3 341 69.6 341 73 341 C73 337.7 73 334.4 73 331 C83.56 331 94.12 331 105 331 C105 334.3 105 337.6 105 341 C114.9 341 124.8 341 135 341 C135 350.9 135 360.8 135 371 C131.7 371 128.4 371 125 371 C125 364.4 125 357.8 125 351 C118.4 351 111.8 351 105 351 C105 358.26 105 365.52 105 373 C108.3 373 111.6 373 115 373 C115 382.9 115 392.8 115 403 C118.3 403 121.6 403 125 403 C125 406.3 125 409.6 125 413 C118.4 413 111.8 413 105 413 C105 409.7 105 406.4 105 403 C101.7 403 98.4 403 95 403 C95 403.66 95 404.32 95 405 C94.34 405 93.68 405 93 405 C93 405.66 93 406.32 93 407 C93.66 407 94.32 407 95 407 C95 408.98 95 410.96 95 413 C91.7 413 88.4 413 85 413 C85 409.7 85 406.4 85 403 C81.04 403 77.08 403 73 403 C73 406.3 73 409.6 73 413 C69.7 413 66.4 413 63 413 C63 416.96 63 420.92 63 425 C66.3 425 69.6 425 73 425 C73 421.7 73 418.4 73 415 C73.66 415 74.32 415 75 415 C75 414.34 75 413.68 75 413 C77.64 413 80.28 413 83 413 C83 419.6 83 426.2 83 433 C83.66 433 84.32 433 85 433 C85 433.66 85 434.32 85 435 C88.3 435 91.6 435 95 435 C95 436.98 95 438.96 95 441 C94.34 441 93.68 441 93 441 C93 441.66 93 442.32 93 443 C93.66 443 94.32 443 95 443 C95 443.66 95 444.32 95 445 C101.6 445 108.2 445 115 445 C115 448.3 115 451.6 115 455 C118.3 455 121.6 455 125 455 C125 448.4 125 441.8 125 435 C121.7 435 118.4 435 115 435 C115 431.7 115 428.4 115 425 C121.6 425 128.2 425 135 425 C135 428.3 135 431.6 135 435 C142.26 435 149.52 435 157 435 C157 431.7 157 428.4 157 425 C163.6 425 170.2 425 177 425 C177 428.3 177 431.6 177 435 C180.3 435 183.6 435 187 435 C187 444.9 187 454.8 187 465 C190.3 465 193.6 465 197 465 C197 471.6 197 478.2 197 485 C197.66 485 198.32 485 199 485 C199 485.66 199 486.32 199 487 C202.3 487 205.6 487 209 487 C209 479.74 209 472.48 209 465 C205.7 465 202.4 465 199 465 C199 461.7 199 458.4 199 455 C208.9 455 218.8 455 229 455 C229 458.3 229 461.6 229 465 C225.7 465 222.4 465 219 465 C219 475.56 219 486.12 219 497 C215.7 497 212.4 497 209 497 C209 500.3 209 503.6 209 507 C215.6 507 222.2 507 229 507 C229 503.7 229 500.4 229 497 C235.6 497 242.2 497 249 497 C249 500.3 249 503.6 249 507 C250.98 507 252.96 507 255 507 C255 507.33 255 507.66 255 508 C170.85 508 86.7 508 0 508 C0 340.36 0 172.72 0 0 Z " fill="#282828" transform="translate(0,0)"/>
<path d="M0 0 C13.86 0 27.72 0 42 0 C42 2.97 42 5.94 42 9 C38.7 9 35.4 9 32 9 C32.33 16.26 32.66 23.52 33 31 C29.37 31 25.74 31 22 31 C22 34.3 22 37.6 22 41 C18.7 41 15.4 41 12 41 C12 44.3 12 47.6 12 51 C8.7 51 5.4 51 2 51 C2 54.3 2 57.6 2 61 C5.3 61 8.6 61 12 61 C12 64.3 12 67.6 12 71 C8.7 71 5.4 71 2 71 C2 74.3 2 77.6 2 81 C1.34 81 0.68 81 0 81 C0 81.66 0 82.32 0 83 C-5.94 83 -11.88 83 -18 83 C-18 82.34 -18 81.68 -18 81 C-18.66 81 -19.32 81 -20 81 C-20 74.4 -20 67.8 -20 61 C-23.3 61 -26.6 61 -30 61 C-30 70.9 -30 80.8 -30 91 C-29.34 91 -28.68 91 -28 91 C-28 91.66 -28 92.32 -28 93 C-14.8 93 -1.6 93 12 93 C12 99.6 12 106.2 12 113 C18.6 113 25.2 113 32 113 C32 116.3 32 119.6 32 123 C28.7 123 25.4 123 22 123 C22 129.6 22 136.2 22 143 C25.3 143 28.6 143 32 143 C32 139.7 32 136.4 32 133 C38.6 133 45.2 133 52 133 C52 129.7 52 126.4 52 123 C59.26 123 66.52 123 74 123 C74 119.7 74 116.4 74 113 C77.3 113 80.6 113 84 113 C84 123.56 84 134.12 84 145 C80.7 145 77.4 145 74 145 C74 148.3 74 151.6 74 155 C80.6 155 87.2 155 94 155 C94 158.3 94 161.6 94 165 C90.7 165 87.4 165 84 165 C84 168.3 84 171.6 84 175 C87.3 175 90.6 175 94 175 C94 181.6 94 188.2 94 195 C97.3 195 100.6 195 104 195 C104 185.1 104 175.2 104 165 C111.26 165 118.52 165 126 165 C126 168.3 126 171.6 126 175 C129.3 175 132.6 175 136 175 C136 185.56 136 196.12 136 207 C142.6 207 149.2 207 156 207 C156 210.3 156 213.6 156 217 C152.7 217 149.4 217 146 217 C146 226.9 146 236.8 146 247 C149.3 247 152.6 247 156 247 C156 243.7 156 240.4 156 237 C159.3 237 162.6 237 166 237 C166 230.4 166 223.8 166 217 C169.96 217 173.92 217 178 217 C178 220.3 178 223.6 178 227 C184.6 227 191.2 227 198 227 C198 230.3 198 233.6 198 237 C188.1 237 178.2 237 168 237 C168 240.3 168 243.6 168 247 C167.34 247 166.68 247 166 247 C166 247.66 166 248.32 166 249 C162.7 249 159.4 249 156 249 C156 254.94 156 260.88 156 267 C156.66 267 157.32 267 158 267 C158 267.66 158 268.32 158 269 C160.64 269 163.28 269 166 269 C166 265.7 166 262.4 166 259 C166.66 259 167.32 259 168 259 C168 258.34 168 257.68 168 257 C171.3 257 174.6 257 178 257 C178 253.7 178 250.4 178 247 C181.3 247 184.6 247 188 247 C188 250.96 188 254.92 188 259 C184.7 259 181.4 259 178 259 C178 262.3 178 265.6 178 269 C174.7 269 171.4 269 168 269 C168 272.3 168 275.6 168 279 C171.3 279 174.6 279 178 279 C178 292.86 178 306.72 178 321 C174.7 321 171.4 321 168 321 C168 320.34 168 319.68 168 319 C167.34 319 166.68 319 166 319 C166 312.4 166 305.8 166 299 C163.36 299 160.72 299 158 299 C158 299.66 158 300.32 158 301 C157.34 301 156.68 301 156 301 C156 304.3 156 307.6 156 311 C152.7 311 149.4 311 146 311 C146 307.04 146 303.08 146 299 C149.3 299 152.6 299 156 299 C156 292.4 156 285.8 156 279 C142.8 279 129.6 279 116 279 C116 285.6 116 292.2 116 299 C112.7 299 109.4 299 106 299 C106 305.6 106 312.2 106 319 C105.34 319 104.68 319 104 319 C104 319.66 104 320.32 104 321 C100.7 321 97.4 321 94 321 C94 324.3 94 327.6 94 331 C90.7 331 87.4 331 84 331 C84 323.74 84 316.48 84 309 C87.3 309 90.6 309 94 309 C94 305.7 94 302.4 94 299 C90.7 299 87.4 299 84 299 C84 295.7 84 292.4 84 289 C80.7 289 77.4 289 74 289 C74 282.4 74 275.8 74 269 C63.44 269 52.88 269 42 269 C42 272.3 42 275.6 42 279 C35.4 279 28.8 279 22 279 C22 275.7 22 272.4 22 269 C25.3 269 28.6 269 32 269 C32 265.7 32 262.4 32 259 C32.66 259 33.32 259 34 259 C34 258.34 34 257.68 34 257 C43.9 257 53.8 257 64 257 C64 254.36 64 251.72 64 249 C60.7 249 57.4 249 54 249 C54 248.34 54 247.68 54 247 C53.34 247 52.68 247 52 247 C52 243.7 52 240.4 52 237 C55.96 237 59.92 237 64 237 C64 240.3 64 243.6 64 247 C70.6 247 77.2 247 84 247 C84 243.7 84 240.4 84 237 C80.7 237 77.4 237 74 237 C74 233.7 74 230.4 74 227 C64.1 227 54.2 227 44 227 C44 227.66 44 228.32 44 229 C43.34 229 42.68 229 42 229 C42 231.64 42 234.28 42 237 C38.7 237 35.4 237 32 237 C32 219.84 32 202.68 32 185 C35.3 185 38.6 185 42 185 C42 181.7 42 178.4 42 175 C38.7 175 35.4 175 32 175 C32 168.4 32 161.8 32 155 C28.7 155 25.4 155 22 155 C22 151.7 22 148.4 22 145 C15.4 145 8.8 145 2 145 C2 148.3 2 151.6 2 155 C5.3 155 8.6 155 12 155 C12 161.6 12 168.2 12 175 C15.3 175 18.6 175 22 175 C22 185.56 22 196.12 22 207 C18.7 207 15.4 207 12 207 C12 210.3 12 213.6 12 217 C8.7 217 5.4 217 2 217 C2 216.34 2 215.68 2 215 C1.34 215 0.68 215 0 215 C0 212.36 0 209.72 0 207 C3.3 207 6.6 207 10 207 C10 206.34 10 205.68 10 205 C10.66 205 11.32 205 12 205 C12 202.36 12 199.72 12 197 C5.4 197 -1.2 197 -8 197 C-8 196.34 -8 195.68 -8 195 C-8.66 195 -9.32 195 -10 195 C-10 175.2 -10 155.4 -10 135 C-13.3 135 -16.6 135 -20 135 C-20 144.9 -20 154.8 -20 165 C-23.3 165 -26.6 165 -30 165 C-30 168.3 -30 171.6 -30 175 C-33.3 175 -36.6 175 -40 175 C-40 168.4 -40 161.8 -40 155 C-47.26 155 -54.52 155 -62 155 C-62 148.4 -62 141.8 -62 135 C-67.94 135 -73.88 135 -80 135 C-80 134.34 -80 133.68 -80 133 C-80.66 133 -81.32 133 -82 133 C-82 123.1 -82 113.2 -82 103 C-78.7 103 -75.4 103 -72 103 C-72 99.7 -72 96.4 -72 93 C-75.3 93 -78.6 93 -82 93 C-82 89.04 -82 85.08 -82 81 C-78.7 81 -75.4 81 -72 81 C-72 84.3 -72 87.6 -72 91 C-71.34 91 -70.68 91 -70 91 C-70 91.66 -70 92.32 -70 93 C-67.36 93 -64.72 93 -62 93 C-62 89.7 -62 86.4 -62 83 C-61.34 83 -60.68 83 -60 83 C-60 82.34 -60 81.68 -60 81 C-56.7 81 -53.4 81 -50 81 C-50 78.36 -50 75.72 -50 73 C-50.66 73 -51.32 73 -52 73 C-52 72.34 -52 71.68 -52 71 C-55.3 71 -58.6 71 -62 71 C-62 67.7 -62 64.4 -62 61 C-58.04 61 -54.08 61 -50 61 C-50 64.3 -50 67.6 -50 71 C-46.7 71 -43.4 71 -40 71 C-40 64.4 -40 57.8 -40 51 C-36.7 51 -33.4 51 -30 51 C-30 47.7 -30 44.4 -30 41 C-26.7 41 -23.4 41 -20 41 C-20 44.3 -20 47.6 -20 51 C-13.4 51 -6.8 51 0 51 C0 47.7 0 44.4 0 41 C-3.3 41 -6.6 41 -10 41 C-10 37.7 -10 34.4 -10 31 C-19.9 31 -29.8 31 -40 31 C-40 34.3 -40 37.6 -40 41 C-43.3 41 -46.6 41 -50 41 C-50 44.3 -50 47.6 -50 51 C-53.96 51 -57.92 51 -62 51 C-62 41.1 -62 31.2 -62 21 C-61.34 21 -60.68 21 -60 21 C-60 20.34 -60 19.68 -60 19 C-56.7 19 -53.4 19 -50 19 C-50 22.3 -50 25.6 -50 29 C-46.7 29 -43.4 29 -40 29 C-40 25.7 -40 22.4 -40 19 C-36.7 19 -33.4 19 -30 19 C-30 15.7 -30 12.4 -30 9 C-26.7 9 -23.4 9 -20 9 C-20 12.3 -20 15.6 -20 19 C-16.7 19 -13.4 19 -10 19 C-10 15.7 -10 12.4 -10 9 C-6.7 9 -3.4 9 0 9 C0 6.03 0 3.06 0 0 Z " fill="#000000" transform="translate(145,0)"/>
<path d="M0 0 C27.06 0 54.12 0 82 0 C82 81.51 82 163.02 82 247 C75.4 247 68.8 247 62 247 C62 243.7 62 240.4 62 237 C65.3 237 68.6 237 72 237 C72 233.7 72 230.4 72 227 C68.7 227 65.4 227 62 227 C62 227.66 62 228.32 62 229 C61.34 229 60.68 229 60 229 C60 231.64 60 234.28 60 237 C57.36 237 54.72 237 52 237 C52 233.7 52 230.4 52 227 C44.74 227 37.48 227 30 227 C30 220.4 30 213.8 30 207 C26.7 207 23.4 207 20 207 C20 210.3 20 213.6 20 217 C16.7 217 13.4 217 10 217 C10 213.7 10 210.4 10 207 C6.04 207 2.08 207 -2 207 C-2 210.3 -2 213.6 -2 217 C-4.64 217 -7.28 217 -10 217 C-10 216.34 -10 215.68 -10 215 C-10.66 215 -11.32 215 -12 215 C-12 213.02 -12 211.04 -12 209 C-11.34 209 -10.68 209 -10 209 C-10 208.34 -10 207.68 -10 207 C-13.3 207 -16.6 207 -20 207 C-20 206.34 -20 205.68 -20 205 C-20.66 205 -21.32 205 -22 205 C-22 198.4 -22 191.8 -22 185 C-25.3 185 -28.6 185 -32 185 C-32 181.7 -32 178.4 -32 175 C-18.14 175 -4.28 175 10 175 C10 171.7 10 168.4 10 165 C13.3 165 16.6 165 20 165 C20 155.1 20 145.2 20 135 C23.3 135 26.6 135 30 135 C30 138.3 30 141.6 30 145 C33.3 145 36.6 145 40 145 C40 141.04 40 137.08 40 133 C36.7 133 33.4 133 30 133 C30 126.4 30 119.8 30 113 C33.3 113 36.6 113 40 113 C40 106.4 40 99.8 40 93 C47.26 93 54.52 93 62 93 C62 89.7 62 86.4 62 83 C61.34 83 60.68 83 60 83 C60 82.34 60 81.68 60 81 C50.1 81 40.2 81 30 81 C30 84.3 30 87.6 30 91 C29.34 91 28.68 91 28 91 C28 91.66 28 92.32 28 93 C25.36 93 22.72 93 20 93 C20 96.3 20 99.6 20 103 C12.74 103 5.48 103 -2 103 C-2 106.3 -2 109.6 -2 113 C-4.64 113 -7.28 113 -10 113 C-10 112.34 -10 111.68 -10 111 C-10.66 111 -11.32 111 -12 111 C-12 108.36 -12 105.72 -12 103 C-15.3 103 -18.6 103 -22 103 C-22 99.7 -22 96.4 -22 93 C-18.7 93 -15.4 93 -12 93 C-12 92.34 -12 91.68 -12 91 C-11.34 91 -10.68 91 -10 91 C-10 90.34 -10 89.68 -10 89 C-10.66 89 -11.32 89 -12 89 C-12 87.68 -12 86.36 -12 85 C-11.34 85 -10.68 85 -10 85 C-10 84.34 -10 83.68 -10 83 C-10.66 83 -11.32 83 -12 83 C-12 82.34 -12 81.68 -12 81 C-15.3 81 -18.6 81 -22 81 C-22 71.1 -22 61.2 -22 51 C-25.3 51 -28.6 51 -32 51 C-32 47.7 -32 44.4 -32 41 C-38.6 41 -45.2 41 -52 41 C-52 37.7 -52 34.4 -52 31 C-48.7 31 -45.4 31 -42 31 C-42 27.7 -42 24.4 -42 21 C-35.4 21 -28.8 21 -22 21 C-22 27.6 -22 34.2 -22 41 C-18.7 41 -15.4 41 -12 41 C-12 40.34 -12 39.68 -12 39 C-11.34 39 -10.68 39 -10 39 C-10 38.34 -10 37.68 -10 37 C-10.66 37 -11.32 37 -12 37 C-12 35.02 -12 33.04 -12 31 C-8.7 31 -5.4 31 -2 31 C-2 30.34 -2 29.68 -2 29 C-1.34 29 -0.68 29 0 29 C0 19.43 0 9.86 0 0 Z " fill="#FEFEFE" transform="translate(427,0)"/>
<path d="M0 0 C10.56 0 21.12 0 32 0 C32 3.3 32 6.6 32 10 C41.9 10 51.8 10 62 10 C62 19.9 62 29.8 62 40 C58.7 40 55.4 40 52 40 C52 33.4 52 26.8 52 20 C45.4 20 38.8 20 32 20 C32 27.26 32 34.52 32 42 C35.3 42 38.6 42 42 42 C42 51.9 42 61.8 42 72 C45.3 72 48.6 72 52 72 C52 75.3 52 78.6 52 82 C45.4 82 38.8 82 32 82 C32 78.7 32 75.4 32 72 C28.7 72 25.4 72 22 72 C22 72.66 22 73.32 22 74 C21.34 74 20.68 74 20 74 C20 74.66 20 75.32 20 76 C20.66 76 21.32 76 22 76 C22 77.98 22 79.96 22 82 C18.7 82 15.4 82 12 82 C12 78.7 12 75.4 12 72 C8.04 72 4.08 72 0 72 C0 75.3 0 78.6 0 82 C-3.3 82 -6.6 82 -10 82 C-10 85.96 -10 89.92 -10 94 C-6.7 94 -3.4 94 0 94 C0 90.7 0 87.4 0 84 C0.66 84 1.32 84 2 84 C2 83.34 2 82.68 2 82 C4.64 82 7.28 82 10 82 C10 88.6 10 95.2 10 102 C10.66 102 11.32 102 12 102 C12 102.66 12 103.32 12 104 C15.3 104 18.6 104 22 104 C22 105.98 22 107.96 22 110 C21.34 110 20.68 110 20 110 C20 110.66 20 111.32 20 112 C20.66 112 21.32 112 22 112 C22 112.66 22 113.32 22 114 C28.6 114 35.2 114 42 114 C42 117.3 42 120.6 42 124 C45.3 124 48.6 124 52 124 C52 117.4 52 110.8 52 104 C48.7 104 45.4 104 42 104 C42 100.7 42 97.4 42 94 C48.6 94 55.2 94 62 94 C62 97.3 62 100.6 62 104 C69.26 104 76.52 104 84 104 C84 100.7 84 97.4 84 94 C90.6 94 97.2 94 104 94 C104 97.3 104 100.6 104 104 C107.3 104 110.6 104 114 104 C114 113.9 114 123.8 114 134 C117.3 134 120.6 134 124 134 C124 140.6 124 147.2 124 154 C124.66 154 125.32 154 126 154 C126 154.66 126 155.32 126 156 C129.3 156 132.6 156 136 156 C136 148.74 136 141.48 136 134 C132.7 134 129.4 134 126 134 C126 130.7 126 127.4 126 124 C135.9 124 145.8 124 156 124 C156 127.3 156 130.6 156 134 C152.7 134 149.4 134 146 134 C146 144.56 146 155.12 146 166 C142.7 166 139.4 166 136 166 C136 169.3 136 172.6 136 176 C128.74 176 121.48 176 114 176 C114 172.7 114 169.4 114 166 C110.7 166 107.4 166 104 166 C104 162.04 104 158.08 104 154 C100.7 154 97.4 154 94 154 C94 150.7 94 147.4 94 144 C87.4 144 80.8 144 74 144 C74 137.4 74 130.8 74 124 C77.3 124 80.6 124 84 124 C84 120.7 84 117.4 84 114 C76.74 114 69.48 114 62 114 C62 123.9 62 133.8 62 144 C58.7 144 55.4 144 52 144 C52 140.7 52 137.4 52 134 C48.7 134 45.4 134 42 134 C42 137.3 42 140.6 42 144 C38.7 144 35.4 144 32 144 C32 151.26 32 158.52 32 166 C28.7 166 25.4 166 22 166 C22 155.44 22 144.88 22 134 C18.04 134 14.08 134 10 134 C10 147.86 10 161.72 10 176 C6.7 176 3.4 176 0 176 C0 152.24 0 128.48 0 104 C-23.76 104 -47.52 104 -72 104 C-72 100.7 -72 97.4 -72 94 C-62.1 94 -52.2 94 -42 94 C-42 93.34 -42 92.68 -42 92 C-41.34 92 -40.68 92 -40 92 C-40 88.7 -40 85.4 -40 82 C-36.7 82 -33.4 82 -30 82 C-30 78.7 -30 75.4 -30 72 C-36.6 72 -43.2 72 -50 72 C-50 71.34 -50 70.68 -50 70 C-50.66 70 -51.32 70 -52 70 C-52 69.34 -52 68.68 -52 68 C-51.34 68 -50.68 68 -50 68 C-50 59.42 -50 50.84 -50 42 C-50.66 42 -51.32 42 -52 42 C-52 41.34 -52 40.68 -52 40 C-55.3 40 -58.6 40 -62 40 C-62 36.7 -62 33.4 -62 30 C-65.3 30 -68.6 30 -72 30 C-72 26.7 -72 23.4 -72 20 C-68.7 20 -65.4 20 -62 20 C-62 16.7 -62 13.4 -62 10 C-58.7 10 -55.4 10 -52 10 C-52 16.6 -52 23.2 -52 30 C-51.34 30 -50.68 30 -50 30 C-50 30.66 -50 31.32 -50 32 C-47.36 32 -44.72 32 -42 32 C-42 31.34 -42 30.68 -42 30 C-41.34 30 -40.68 30 -40 30 C-40 26.7 -40 23.4 -40 20 C-37.36 20 -34.72 20 -32 20 C-32 20.66 -32 21.32 -32 22 C-31.34 22 -30.68 22 -30 22 C-30 28.6 -30 35.2 -30 42 C-23.4 42 -16.8 42 -10 42 C-10 45.3 -10 48.6 -10 52 C-6.7 52 -3.4 52 0 52 C0 55.3 0 58.6 0 62 C7.26 62 14.52 62 22 62 C22 55.4 22 48.8 22 42 C21.34 42 20.68 42 20 42 C20 41.34 20 40.68 20 40 C17.36 40 14.72 40 12 40 C12 40.66 12 41.32 12 42 C11.34 42 10.68 42 10 42 C10 45.3 10 48.6 10 52 C7.36 52 4.72 52 2 52 C2 51.34 2 50.68 2 50 C1.34 50 0.68 50 0 50 C0 46.7 0 43.4 0 40 C-3.3 40 -6.6 40 -10 40 C-10 37.36 -10 34.72 -10 32 C-3.4 32 3.2 32 10 32 C10 31.34 10 30.68 10 30 C10.66 30 11.32 30 12 30 C12 27.36 12 24.72 12 22 C11.34 22 10.68 22 10 22 C10 21.34 10 20.68 10 20 C3.4 20 -3.2 20 -10 20 C-10 16.7 -10 13.4 -10 10 C-6.7 10 -3.4 10 0 10 C0 6.7 0 3.4 0 0 Z " fill="#FEFEFE" transform="translate(73,331)"/>
<path d="M0 0 C7.26 0 14.52 0 22 0 C22 3.3 22 6.6 22 10 C25.3 10 28.6 10 32 10 C32 20.56 32 31.12 32 42 C38.6 42 45.2 42 52 42 C52 45.3 52 48.6 52 52 C48.7 52 45.4 52 42 52 C42 61.9 42 71.8 42 82 C45.3 82 48.6 82 52 82 C52 78.7 52 75.4 52 72 C55.3 72 58.6 72 62 72 C62 65.4 62 58.8 62 52 C65.96 52 69.92 52 74 52 C74 55.3 74 58.6 74 62 C80.6 62 87.2 62 94 62 C94 65.3 94 68.6 94 72 C84.1 72 74.2 72 64 72 C64 75.3 64 78.6 64 82 C63.34 82 62.68 82 62 82 C62 82.66 62 83.32 62 84 C58.7 84 55.4 84 52 84 C52 89.94 52 95.88 52 102 C52.66 102 53.32 102 54 102 C54 102.66 54 103.32 54 104 C56.64 104 59.28 104 62 104 C62 100.7 62 97.4 62 94 C62.66 94 63.32 94 64 94 C64 93.34 64 92.68 64 92 C67.3 92 70.6 92 74 92 C74 88.7 74 85.4 74 82 C77.3 82 80.6 82 84 82 C84 85.96 84 89.92 84 94 C80.7 94 77.4 94 74 94 C74 97.3 74 100.6 74 104 C70.7 104 67.4 104 64 104 C64 107.3 64 110.6 64 114 C67.3 114 70.6 114 74 114 C74 127.86 74 141.72 74 156 C70.7 156 67.4 156 64 156 C64 155.34 64 154.68 64 154 C63.34 154 62.68 154 62 154 C62 147.4 62 140.8 62 134 C59.36 134 56.72 134 54 134 C54 134.66 54 135.32 54 136 C53.34 136 52.68 136 52 136 C52 139.3 52 142.6 52 146 C48.7 146 45.4 146 42 146 C42 142.04 42 138.08 42 134 C45.3 134 48.6 134 52 134 C52 127.4 52 120.8 52 114 C38.8 114 25.6 114 12 114 C12 120.6 12 127.2 12 134 C8.7 134 5.4 134 2 134 C2 140.6 2 147.2 2 154 C1.34 154 0.68 154 0 154 C0 154.66 0 155.32 0 156 C-3.3 156 -6.6 156 -10 156 C-10 159.3 -10 162.6 -10 166 C-13.3 166 -16.6 166 -20 166 C-20 158.74 -20 151.48 -20 144 C-16.7 144 -13.4 144 -10 144 C-10 140.7 -10 137.4 -10 134 C-13.3 134 -16.6 134 -20 134 C-20 130.7 -20 127.4 -20 124 C-23.3 124 -26.6 124 -30 124 C-30 117.4 -30 110.8 -30 104 C-40.56 104 -51.12 104 -62 104 C-62 107.3 -62 110.6 -62 114 C-68.6 114 -75.2 114 -82 114 C-82 110.7 -82 107.4 -82 104 C-78.7 104 -75.4 104 -72 104 C-72 100.7 -72 97.4 -72 94 C-71.34 94 -70.68 94 -70 94 C-70 93.34 -70 92.68 -70 92 C-60.1 92 -50.2 92 -40 92 C-40 89.36 -40 86.72 -40 84 C-43.3 84 -46.6 84 -50 84 C-50 83.34 -50 82.68 -50 82 C-50.66 82 -51.32 82 -52 82 C-52 78.7 -52 75.4 -52 72 C-48.04 72 -44.08 72 -40 72 C-40 75.3 -40 78.6 -40 82 C-33.4 82 -26.8 82 -20 82 C-20 78.7 -20 75.4 -20 72 C-23.3 72 -26.6 72 -30 72 C-30 68.7 -30 65.4 -30 62 C-20.1 62 -10.2 62 0 62 C0 55.4 0 48.8 0 42 C-6.6 42 -13.2 42 -20 42 C-20 31.44 -20 20.88 -20 10 C-16.7 10 -13.4 10 -10 10 C-10 16.6 -10 23.2 -10 30 C-6.7 30 -3.4 30 0 30 C0 20.1 0 10.2 0 0 Z " fill="#000000" transform="translate(249,165)"/>
<path d="M0 0 C3.3 0 6.6 0 10 0 C10 3.3 10 6.6 10 10 C13.3 10 16.6 10 20 10 C20 13.3 20 16.6 20 20 C20.66 20 21.32 20 22 20 C22 20.66 22 21.32 22 22 C24.64 22 27.28 22 30 22 C30 21.34 30 20.68 30 20 C30.66 20 31.32 20 32 20 C32 16.7 32 13.4 32 10 C34.64 10 37.28 10 40 10 C40 10.66 40 11.32 40 12 C40.66 12 41.32 12 42 12 C42 15.3 42 18.6 42 22 C45.3 22 48.6 22 52 22 C52 58.96 52 95.92 52 134 C45.4 134 38.8 134 32 134 C32 130.7 32 127.4 32 124 C35.3 124 38.6 124 42 124 C42 120.7 42 117.4 42 114 C38.7 114 35.4 114 32 114 C32 114.66 32 115.32 32 116 C31.34 116 30.68 116 30 116 C30 118.64 30 121.28 30 124 C27.36 124 24.72 124 22 124 C22 120.7 22 117.4 22 114 C14.74 114 7.48 114 0 114 C0 107.4 0 100.8 0 94 C-3.3 94 -6.6 94 -10 94 C-10 97.3 -10 100.6 -10 104 C-13.3 104 -16.6 104 -20 104 C-20 100.7 -20 97.4 -20 94 C-23.96 94 -27.92 94 -32 94 C-32 97.3 -32 100.6 -32 104 C-34.64 104 -37.28 104 -40 104 C-40 103.34 -40 102.68 -40 102 C-40.66 102 -41.32 102 -42 102 C-42 100.02 -42 98.04 -42 96 C-41.34 96 -40.68 96 -40 96 C-40 95.34 -40 94.68 -40 94 C-43.3 94 -46.6 94 -50 94 C-50 93.34 -50 92.68 -50 92 C-50.66 92 -51.32 92 -52 92 C-52 85.4 -52 78.8 -52 72 C-55.3 72 -58.6 72 -62 72 C-62 68.7 -62 65.4 -62 62 C-48.14 62 -34.28 62 -20 62 C-20 58.7 -20 55.4 -20 52 C-16.7 52 -13.4 52 -10 52 C-10 42.1 -10 32.2 -10 22 C-6.7 22 -3.4 22 0 22 C0 25.3 0 28.6 0 32 C3.3 32 6.6 32 10 32 C10 28.04 10 24.08 10 20 C6.7 20 3.4 20 0 20 C0 13.4 0 6.8 0 0 Z " fill="#FEFEFE" transform="translate(457,113)"/>
<path d="M0 0 C6.6 0 13.2 0 20 0 C20 3.3 20 6.6 20 10 C20.66 10 21.32 10 22 10 C22 10.66 22 11.32 22 12 C27.94 12 33.88 12 40 12 C40 18.6 40 25.2 40 32 C47.26 32 54.52 32 62 32 C62 38.6 62 45.2 62 52 C65.3 52 68.6 52 72 52 C72 48.7 72 45.4 72 42 C75.3 42 78.6 42 82 42 C82 32.1 82 22.2 82 12 C85.3 12 88.6 12 92 12 C92 31.8 92 51.6 92 72 C92.66 72 93.32 72 94 72 C94 72.66 94 73.32 94 74 C100.6 74 107.2 74 114 74 C114 76.64 114 79.28 114 82 C113.34 82 112.68 82 112 82 C112 82.66 112 83.32 112 84 C108.7 84 105.4 84 102 84 C102 86.64 102 89.28 102 92 C102.66 92 103.32 92 104 92 C104 92.66 104 93.32 104 94 C107.3 94 110.6 94 114 94 C114 97.3 114 100.6 114 104 C110.04 104 106.08 104 102 104 C102 110.6 102 117.2 102 124 C98.7 124 95.4 124 92 124 C92 123.34 92 122.68 92 122 C92.66 122 93.32 122 94 122 C94 120.02 94 118.04 94 116 C93.34 116 92.68 116 92 116 C92 115.34 92 114.68 92 114 C88.7 114 85.4 114 82 114 C82 117.3 82 120.6 82 124 C78.7 124 75.4 124 72 124 C72 117.4 72 110.8 72 104 C62.1 104 52.2 104 42 104 C42 97.4 42 90.8 42 84 C45.3 84 48.6 84 52 84 C52 80.7 52 77.4 52 74 C51.34 74 50.68 74 50 74 C50 73.34 50 72.68 50 72 C47.36 72 44.72 72 42 72 C42 65.4 42 58.8 42 52 C38.04 52 34.08 52 30 52 C30 55.3 30 58.6 30 62 C26.7 62 23.4 62 20 62 C20 65.3 20 68.6 20 72 C13.4 72 6.8 72 0 72 C0 68.7 0 65.4 0 62 C3.3 62 6.6 62 10 62 C10 55.4 10 48.8 10 42 C13.3 42 16.6 42 20 42 C20 38.7 20 35.4 20 32 C23.3 32 26.6 32 30 32 C30 28.04 30 24.08 30 20 C23.4 20 16.8 20 10 20 C10 16.7 10 13.4 10 10 C6.7 10 3.4 10 0 10 C0 6.7 0 3.4 0 0 Z " fill="#FEFEFE" transform="translate(43,123)"/>
<path d="M0 0 C23.76 0 47.52 0 72 0 C72 23.43 72 46.86 72 71 C48.24 71 24.48 71 0 71 C0 47.57 0 24.14 0 0 Z " fill="#FEFEFE" transform="translate(437,0)"/>
<path d="M0 0 C23.76 0 47.52 0 72 0 C72 2.97 72 5.94 72 9 C68.7 9 65.4 9 62 9 C62 12.3 62 15.6 62 19 C58.7 19 55.4 19 52 19 C52 15.7 52 12.4 52 9 C48.7 9 45.4 9 42 9 C42 12.3 42 15.6 42 19 C38.7 19 35.4 19 32 19 C32 22.3 32 25.6 32 29 C28.7 29 25.4 29 22 29 C22 25.7 22 22.4 22 19 C18.7 19 15.4 19 12 19 C12 19.66 12 20.32 12 21 C11.34 21 10.68 21 10 21 C10 30.9 10 40.8 10 51 C13.96 51 17.92 51 22 51 C22 47.7 22 44.4 22 41 C25.3 41 28.6 41 32 41 C32 37.7 32 34.4 32 31 C41.9 31 51.8 31 62 31 C62 34.3 62 37.6 62 41 C65.3 41 68.6 41 72 41 C72 44.3 72 47.6 72 51 C65.4 51 58.8 51 52 51 C52 47.7 52 44.4 52 41 C48.7 41 45.4 41 42 41 C42 44.3 42 47.6 42 51 C38.7 51 35.4 51 32 51 C32 57.6 32 64.2 32 71 C28.7 71 25.4 71 22 71 C22 67.7 22 64.4 22 61 C18.04 61 14.08 61 10 61 C10 64.3 10 67.6 10 71 C13.3 71 16.6 71 20 71 C20 71.66 20 72.32 20 73 C20.66 73 21.32 73 22 73 C22 75.64 22 78.28 22 81 C18.7 81 15.4 81 12 81 C12 81.66 12 82.32 12 83 C11.34 83 10.68 83 10 83 C10 86.3 10 89.6 10 93 C7.36 93 4.72 93 2 93 C2 92.34 2 91.68 2 91 C1.34 91 0.68 91 0 91 C0 87.7 0 84.4 0 81 C-3.3 81 -6.6 81 -10 81 C-10 84.96 -10 88.92 -10 93 C-6.7 93 -3.4 93 0 93 C0 96.3 0 99.6 0 103 C-3.3 103 -6.6 103 -10 103 C-10 106.3 -10 109.6 -10 113 C-13.3 113 -16.6 113 -20 113 C-20 106.4 -20 99.8 -20 93 C-23.3 93 -26.6 93 -30 93 C-30 89.04 -30 85.08 -30 81 C-43.86 81 -57.72 81 -72 81 C-72 77.7 -72 74.4 -72 71 C-48.24 71 -24.48 71 0 71 C0 47.57 0 24.14 0 0 Z " fill="#FEFEFE" transform="translate(73,0)"/>
<path d="M0 0 C3.3 0 6.6 0 10 0 C10 0.66 10 1.32 10 2 C10.66 2 11.32 2 12 2 C12 7.28 12 12.56 12 18 C11.34 18 10.68 18 10 18 C10 18.66 10 19.32 10 20 C13.3 20 16.6 20 20 20 C20 20.66 20 21.32 20 22 C20.66 22 21.32 22 22 22 C22 28.6 22 35.2 22 42 C28.6 42 35.2 42 42 42 C42 48.6 42 55.2 42 62 C51.9 62 61.8 62 72 62 C72 62.66 72 63.32 72 64 C72.66 64 73.32 64 74 64 C74 66.64 74 69.28 74 72 C73.34 72 72.68 72 72 72 C72 72.66 72 73.32 72 74 C65.4 74 58.8 74 52 74 C52 76.64 52 79.28 52 82 C55.3 82 58.6 82 62 82 C62 85.3 62 88.6 62 92 C62.66 92 63.32 92 64 92 C64 92.66 64 93.32 64 94 C66.64 94 69.28 94 72 94 C72 90.7 72 87.4 72 84 C72.66 84 73.32 84 74 84 C74 83.34 74 82.68 74 82 C76.64 82 79.28 82 82 82 C82 82.66 82 83.32 82 84 C82.66 84 83.32 84 84 84 C84 90.6 84 97.2 84 104 C76.74 104 69.48 104 62 104 C62 100.7 62 97.4 62 94 C58.7 94 55.4 94 52 94 C52 90.7 52 87.4 52 84 C45.4 84 38.8 84 32 84 C32 77.4 32 70.8 32 64 C31.34 64 30.68 64 30 64 C30 63.34 30 62.68 30 62 C27.36 62 24.72 62 22 62 C22 65.3 22 68.6 22 72 C21.34 72 20.68 72 20 72 C20 72.66 20 73.32 20 74 C17.36 74 14.72 74 12 74 C12 73.34 12 72.68 12 72 C11.34 72 10.68 72 10 72 C10 65.4 10 58.8 10 52 C6.7 52 3.4 52 0 52 C0 55.3 0 58.6 0 62 C-3.3 62 -6.6 62 -10 62 C-10 52.1 -10 42.2 -10 32 C-3.4 32 3.2 32 10 32 C10 28.7 10 25.4 10 22 C3.4 22 -3.2 22 -10 22 C-10 18.04 -10 14.08 -10 10 C-6.7 10 -3.4 10 0 10 C0 6.7 0 3.4 0 0 Z " fill="#000000" transform="translate(11,289)"/>
<path d="M0 0 C10.56 0 21.12 0 32 0 C32 3.3 32 6.6 32 10 C41.9 10 51.8 10 62 10 C62 19.9 62 29.8 62 40 C58.7 40 55.4 40 52 40 C52 33.4 52 26.8 52 20 C45.4 20 38.8 20 32 20 C32 27.26 32 34.52 32 42 C35.3 42 38.6 42 42 42 C42 51.9 42 61.8 42 72 C45.3 72 48.6 72 52 72 C52 75.3 52 78.6 52 82 C45.4 82 38.8 82 32 82 C32 78.7 32 75.4 32 72 C28.7 72 25.4 72 22 72 C22 72.66 22 73.32 22 74 C21.34 74 20.68 74 20 74 C20 74.66 20 75.32 20 76 C20.66 76 21.32 76 22 76 C22 77.98 22 79.96 22 82 C18.7 82 15.4 82 12 82 C12 78.7 12 75.4 12 72 C8.04 72 4.08 72 0 72 C0 68.7 0 65.4 0 62 C7.26 62 14.52 62 22 62 C22 55.4 22 48.8 22 42 C21.34 42 20.68 42 20 42 C20 41.34 20 40.68 20 40 C17.36 40 14.72 40 12 40 C12 40.66 12 41.32 12 42 C11.34 42 10.68 42 10 42 C10 45.3 10 48.6 10 52 C7.36 52 4.72 52 2 52 C2 51.34 2 50.68 2 50 C1.34 50 0.68 50 0 50 C0 46.7 0 43.4 0 40 C-3.3 40 -6.6 40 -10 40 C-10 37.36 -10 34.72 -10 32 C-3.4 32 3.2 32 10 32 C10 31.34 10 30.68 10 30 C10.66 30 11.32 30 12 30 C12 27.36 12 24.72 12 22 C11.34 22 10.68 22 10 22 C10 21.34 10 20.68 10 20 C3.4 20 -3.2 20 -10 20 C-10 16.7 -10 13.4 -10 10 C-6.7 10 -3.4 10 0 10 C0 6.7 0 3.4 0 0 Z " fill="#FEFEFE" transform="translate(73,331)"/>
<path d="M0 0 C7.26 0 14.52 0 22 0 C22 3.3 22 6.6 22 10 C18.7 10 15.4 10 12 10 C12 16.6 12 23.2 12 30 C18.6 30 25.2 30 32 30 C32 33.3 32 36.6 32 40 C35.3 40 38.6 40 42 40 C42 43.96 42 47.92 42 52 C38.7 52 35.4 52 32 52 C32 55.3 32 58.6 32 62 C28.7 62 25.4 62 22 62 C22 58.7 22 55.4 22 52 C18.7 52 15.4 52 12 52 C12 55.3 12 58.6 12 62 C4.74 62 -2.52 62 -10 62 C-10 58.7 -10 55.4 -10 52 C-13.3 52 -16.6 52 -20 52 C-20 55.3 -20 58.6 -20 62 C-30.56 62 -41.12 62 -52 62 C-52 48.14 -52 34.28 -52 20 C-48.04 20 -44.08 20 -40 20 C-40 30.56 -40 41.12 -40 52 C-36.7 52 -33.4 52 -30 52 C-30 44.74 -30 37.48 -30 30 C-26.7 30 -23.4 30 -20 30 C-20 26.7 -20 23.4 -20 20 C-16.7 20 -13.4 20 -10 20 C-10 23.3 -10 26.6 -10 30 C-6.7 30 -3.4 30 0 30 C0 20.1 0 10.2 0 0 Z " fill="#000000" transform="translate(135,445)"/>
<path d="M0 0 C3.3 0 6.6 0 10 0 C10 10.56 10 21.12 10 32 C16.6 32 23.2 32 30 32 C30 41.9 30 51.8 30 62 C27.36 62 24.72 62 22 62 C22 62.66 22 63.32 22 64 C21.34 64 20.68 64 20 64 C20 67.3 20 70.6 20 74 C16.7 74 13.4 74 10 74 C10 76.64 10 79.28 10 82 C16.6 82 23.2 82 30 82 C30 78.7 30 75.4 30 72 C33.3 72 36.6 72 40 72 C40 72.66 40 73.32 40 74 C40.66 74 41.32 74 42 74 C42 80.6 42 87.2 42 94 C31.44 94 20.88 94 10 94 C10 90.7 10 87.4 10 84 C3.4 84 -3.2 84 -10 84 C-10 83.34 -10 82.68 -10 82 C-10.66 82 -11.32 82 -12 82 C-12 79.36 -12 76.72 -12 74 C-14.64 74 -17.28 74 -20 74 C-20 73.34 -20 72.68 -20 72 C-20.66 72 -21.32 72 -22 72 C-22 68.7 -22 65.4 -22 62 C-18.7 62 -15.4 62 -12 62 C-12 58.7 -12 55.4 -12 52 C-18.6 52 -25.2 52 -32 52 C-32 48.7 -32 45.4 -32 42 C-25.4 42 -18.8 42 -12 42 C-12 38.7 -12 35.4 -12 32 C-8.7 32 -5.4 32 -2 32 C-2 31.34 -2 30.68 -2 30 C-1.34 30 -0.68 30 0 30 C0 20.1 0 10.2 0 0 Z " fill="#000000" transform="translate(271,289)"/>
<path d="M0 0 C3.3 0 6.6 0 10 0 C10 3.3 10 6.6 10 10 C16.6 10 23.2 10 30 10 C30 13.3 30 16.6 30 20 C33.3 20 36.6 20 40 20 C40 23.3 40 26.6 40 30 C36.7 30 33.4 30 30 30 C30 33.3 30 36.6 30 40 C26.7 40 23.4 40 20 40 C20 43.3 20 46.6 20 50 C13.4 50 6.8 50 0 50 C0 43.4 0 36.8 0 30 C-3.96 30 -7.92 30 -12 30 C-12 36.6 -12 43.2 -12 50 C-11.34 50 -10.68 50 -10 50 C-10 50.66 -10 51.32 -10 52 C-6.7 52 -3.4 52 0 52 C0 58.6 0 65.2 0 72 C6.6 72 13.2 72 20 72 C20 65.4 20 58.8 20 52 C23.3 52 26.6 52 30 52 C30 61.9 30 71.8 30 82 C12.84 82 -4.32 82 -22 82 C-22 78.7 -22 75.4 -22 72 C-18.04 72 -14.08 72 -10 72 C-10 68.7 -10 65.4 -10 62 C-10.66 62 -11.32 62 -12 62 C-12 61.34 -12 60.68 -12 60 C-18.6 60 -25.2 60 -32 60 C-32 57.36 -32 54.72 -32 52 C-28.7 52 -25.4 52 -22 52 C-22 48.04 -22 44.08 -22 40 C-25.3 40 -28.6 40 -32 40 C-32 36.7 -32 33.4 -32 30 C-28.7 30 -25.4 30 -22 30 C-22 26.7 -22 23.4 -22 20 C-14.74 20 -7.48 20 0 20 C0 13.4 0 6.8 0 0 Z " fill="#FEFEFE" transform="translate(323,425)"/>
<path d="M0 0 C17.16 0 34.32 0 52 0 C52 17.16 52 34.32 52 52 C35.5 52 19 52 2 52 C2 51.34 2 50.68 2 50 C1.34 50 0.68 50 0 50 C0 33.5 0 17 0 0 Z " fill="#FEFEFE" transform="translate(11,445)"/>
<path d="M0 0 C16.5 0 33 0 50 0 C50 17.16 50 34.32 50 52 C32.84 52 15.68 52 -2 52 C-2 35.5 -2 19 -2 2 C-1.34 2 -0.68 2 0 2 C0 1.34 0 0.68 0 0 Z " fill="#FEFEFE" transform="translate(13,9)"/>
<path d="M0 0 C6.6 0 13.2 0 20 0 C20 3.3 20 6.6 20 10 C23.3 10 26.6 10 30 10 C30 13.3 30 16.6 30 20 C30.66 20 31.32 20 32 20 C32 20.66 32 21.32 32 22 C41.9 22 51.8 22 62 22 C62 24.64 62 27.28 62 30 C59.36 30 56.72 30 54 30 C54 30.66 54 31.32 54 32 C53.34 32 52.68 32 52 32 C52 38.6 52 45.2 52 52 C28.24 52 4.48 52 -20 52 C-20 48.7 -20 45.4 -20 42 C-16.7 42 -13.4 42 -10 42 C-10 38.7 -10 35.4 -10 32 C-10.66 32 -11.32 32 -12 32 C-12 31.34 -12 30.68 -12 30 C-14.64 30 -17.28 30 -20 30 C-20 23.4 -20 16.8 -20 10 C-17.36 10 -14.72 10 -12 10 C-12 10.66 -12 11.32 -12 12 C-11.34 12 -10.68 12 -10 12 C-10 15.3 -10 18.6 -10 22 C-3.4 22 3.2 22 10 22 C10 18.04 10 14.08 10 10 C6.7 10 3.4 10 0 10 C0 6.7 0 3.4 0 0 Z " fill="#FEFEFE" transform="translate(395,455)"/>
<path d="M0 0 C9.9 0 19.8 0 30 0 C30 3.3 30 6.6 30 10 C33.3 10 36.6 10 40 10 C40 13.3 40 16.6 40 20 C33.4 20 26.8 20 20 20 C20 16.7 20 13.4 20 10 C16.04 10 12.08 10 8 10 C8 13.3 8 16.6 8 20 C8.66 20 9.32 20 10 20 C10 20.66 10 21.32 10 22 C13.3 22 16.6 22 20 22 C20 24.64 20 27.28 20 30 C10.1 30 0.2 30 -10 30 C-10 30.66 -10 31.32 -10 32 C-10.66 32 -11.32 32 -12 32 C-12 35.3 -12 38.6 -12 42 C-15.3 42 -18.6 42 -22 42 C-22 45.3 -22 48.6 -22 52 C-15.4 52 -8.8 52 -2 52 C-2 61.9 -2 71.8 -2 82 C-5.3 82 -8.6 82 -12 82 C-12 78.7 -12 75.4 -12 72 C-15.3 72 -18.6 72 -22 72 C-22 68.7 -22 65.4 -22 62 C-28.6 62 -35.2 62 -42 62 C-42 48.8 -42 35.6 -42 22 C-32.1 22 -22.2 22 -12 22 C-12 18.04 -12 14.08 -12 10 C-8.7 10 -5.4 10 -2 10 C-2 7.36 -2 4.72 -2 2 C-1.34 2 -0.68 2 0 2 C0 1.34 0 0.68 0 0 Z " fill="#FEFEFE" transform="translate(189,227)"/>
<path d="M0 0 C23.76 0 47.52 0 72 0 C72 23.76 72 47.52 72 72 C48.24 72 24.48 72 0 72 C0 48.24 0 24.48 0 0 Z M10 10 C10 26.5 10 43 10 60 C10.66 60 11.32 60 12 60 C12 60.66 12 61.32 12 62 C28.5 62 45 62 62 62 C62 44.84 62 27.68 62 10 C44.84 10 27.68 10 10 10 Z " fill="#000000" transform="translate(1,435)"/>
<path d="M0 0 C23.76 0 47.52 0 72 0 C72 23.43 72 46.86 72 71 C48.24 71 24.48 71 0 71 C0 47.57 0 24.14 0 0 Z M12 9 C12 9.66 12 10.32 12 11 C11.34 11 10.68 11 10 11 C10 27.5 10 44 10 61 C27.16 61 44.32 61 62 61 C62 43.84 62 26.68 62 9 C45.5 9 29 9 12 9 Z " fill="#000000" transform="translate(1,0)"/>
<path d="M0 0 C23.76 0 47.52 0 72 0 C72 23.43 72 46.86 72 71 C48.24 71 24.48 71 0 71 C0 47.57 0 24.14 0 0 Z M10 9 C10 26.16 10 43.32 10 61 C27.16 61 44.32 61 62 61 C62 43.84 62 26.68 62 9 C44.84 9 27.68 9 10 9 Z " fill="#000000" transform="translate(437,0)"/>
<path d="M0 0 C3.3 0 6.6 0 10 0 C10 3.3 10 6.6 10 10 C13.3 10 16.6 10 20 10 C20 6.7 20 3.4 20 0 C23.3 0 26.6 0 30 0 C30 9.9 30 19.8 30 30 C26.7 30 23.4 30 20 30 C20 26.7 20 23.4 20 20 C13.4 20 6.8 20 0 20 C0 26.6 0 33.2 0 40 C3.3 40 6.6 40 10 40 C10 43.3 10 46.6 10 50 C6.7 50 3.4 50 0 50 C0 57.26 0 64.52 0 72 C3.3 72 6.6 72 10 72 C10 75.3 10 78.6 10 82 C3.4 82 -3.2 82 -10 82 C-10 75.4 -10 68.8 -10 62 C-23.2 62 -36.4 62 -50 62 C-50 61.34 -50 60.68 -50 60 C-50.66 60 -51.32 60 -52 60 C-52 50.1 -52 40.2 -52 30 C-48.7 30 -45.4 30 -42 30 C-42 36.6 -42 43.2 -42 50 C-41.34 50 -40.68 50 -40 50 C-40 50.66 -40 51.32 -40 52 C-34.06 52 -28.12 52 -22 52 C-22 51.34 -22 50.68 -22 50 C-21.34 50 -20.68 50 -20 50 C-20 46.7 -20 43.4 -20 40 C-16.7 40 -13.4 40 -10 40 C-10 36.7 -10 33.4 -10 30 C-13.3 30 -16.6 30 -20 30 C-20 26.7 -20 23.4 -20 20 C-16.7 20 -13.4 20 -10 20 C-10 16.7 -10 13.4 -10 10 C-6.7 10 -3.4 10 0 10 C0 6.7 0 3.4 0 0 Z " fill="#FEFEFE" transform="translate(167,31)"/>
<path d="M0 0 C6.6 0 13.2 0 20 0 C20 2.97 20 5.94 20 9 C26.6 9 33.2 9 40 9 C40 9.66 40 10.32 40 11 C40.66 11 41.32 11 42 11 C42 13.64 42 16.28 42 19 C38.7 19 35.4 19 32 19 C32 19.66 32 20.32 32 21 C31.34 21 30.68 21 30 21 C30 23.64 30 26.28 30 29 C27.36 29 24.72 29 22 29 C22 26.36 22 23.72 22 21 C21.34 21 20.68 21 20 21 C20 20.34 20 19.68 20 19 C16.7 19 13.4 19 10 19 C10 29.56 10 40.12 10 51 C6.7 51 3.4 51 0 51 C0 54.3 0 57.6 0 61 C-3.3 61 -6.6 61 -10 61 C-10 64.3 -10 67.6 -10 71 C-13.3 71 -16.6 71 -20 71 C-20 64.4 -20 57.8 -20 51 C-23.3 51 -26.6 51 -30 51 C-30 47.7 -30 44.4 -30 41 C-33.3 41 -36.6 41 -40 41 C-40 40.34 -40 39.68 -40 39 C-40.66 39 -41.32 39 -42 39 C-42 36.36 -42 33.72 -42 31 C-38.7 31 -35.4 31 -32 31 C-32 30.34 -32 29.68 -32 29 C-31.34 29 -30.68 29 -30 29 C-30 26.36 -30 23.72 -30 21 C-20.76 21 -11.52 21 -2 21 C-2 20.34 -2 19.68 -2 19 C-1.34 19 -0.68 19 0 19 C0 12.73 0 6.46 0 0 Z " fill="#FEFEFE" transform="translate(343,0)"/>
<path d="M0 0 C10.56 0 21.12 0 32 0 C32 3.3 32 6.6 32 10 C35.3 10 38.6 10 42 10 C42 6.7 42 3.4 42 0 C45.3 0 48.6 0 52 0 C52 6.6 52 13.2 52 20 C55.3 20 58.6 20 62 20 C62 16.7 62 13.4 62 10 C65.3 10 68.6 10 72 10 C72 10.66 72 11.32 72 12 C72.66 12 73.32 12 74 12 C74 14.64 74 17.28 74 20 C73.34 20 72.68 20 72 20 C72 20.66 72 21.32 72 22 C68.7 22 65.4 22 62 22 C62 24.64 62 27.28 62 30 C62.66 30 63.32 30 64 30 C64 30.66 64 31.32 64 32 C70.6 32 77.2 32 84 32 C84 38.6 84 45.2 84 52 C80.7 52 77.4 52 74 52 C74 58.6 74 65.2 74 72 C73.34 72 72.68 72 72 72 C72 72.66 72 73.32 72 74 C69.36 74 66.72 74 64 74 C64 73.34 64 72.68 64 72 C63.34 72 62.68 72 62 72 C62 65.4 62 58.8 62 52 C55.4 52 48.8 52 42 52 C42 48.7 42 45.4 42 42 C48.6 42 55.2 42 62 42 C62 38.7 62 35.4 62 32 C48.8 32 35.6 32 22 32 C22 31.34 22 30.68 22 30 C21.34 30 20.68 30 20 30 C20 27.36 20 24.72 20 22 C20.66 22 21.32 22 22 22 C22 21.34 22 20.68 22 20 C25.3 20 28.6 20 32 20 C32 17.36 32 14.72 32 12 C22.1 12 12.2 12 2 12 C2 11.34 2 10.68 2 10 C1.34 10 0.68 10 0 10 C0 6.7 0 3.4 0 0 Z " fill="#000000" transform="translate(239,123)"/>
<path d="M0 0 C13.86 0 27.72 0 42 0 C42 3.3 42 6.6 42 10 C48.6 10 55.2 10 62 10 C62 16.6 62 23.2 62 30 C58.7 30 55.4 30 52 30 C52 33.96 52 37.92 52 42 C62.56 42 73.12 42 84 42 C84 42.66 84 43.32 84 44 C83.34 44 82.68 44 82 44 C82 45.32 82 46.64 82 48 C82.66 48 83.32 48 84 48 C84 48.66 84 49.32 84 50 C74.1 50 64.2 50 54 50 C54 50.66 54 51.32 54 52 C53.34 52 52.68 52 52 52 C52 55.3 52 58.6 52 62 C48.7 62 45.4 62 42 62 C42 58.7 42 55.4 42 52 C41.34 52 40.68 52 40 52 C40 51.34 40 50.68 40 50 C37.36 50 34.72 50 32 50 C32 46.7 32 43.4 32 40 C28.7 40 25.4 40 22 40 C22 33.4 22 26.8 22 20 C25.3 20 28.6 20 32 20 C32 16.7 32 13.4 32 10 C21.44 10 10.88 10 0 10 C0 6.7 0 3.4 0 0 Z " fill="#FEFEFE" transform="translate(405,321)"/>
<path d="M0 0 C6.6 0 13.2 0 20 0 C20 7.26 20 14.52 20 22 C23.3 22 26.6 22 30 22 C30 25.3 30 28.6 30 32 C26.7 32 23.4 32 20 32 C20 35.3 20 38.6 20 42 C23.3 42 26.6 42 30 42 C30 48.6 30 55.2 30 62 C26.7 62 23.4 62 20 62 C20 65.3 20 68.6 20 72 C16.7 72 13.4 72 10 72 C10 68.7 10 65.4 10 62 C6.7 62 3.4 62 0 62 C0 58.7 0 55.4 0 52 C3.3 52 6.6 52 10 52 C10 48.7 10 45.4 10 42 C3.4 42 -3.2 42 -10 42 C-10 45.3 -10 48.6 -10 52 C-13.3 52 -16.6 52 -20 52 C-20 45.4 -20 38.8 -20 32 C-16.7 32 -13.4 32 -10 32 C-10 28.7 -10 25.4 -10 22 C-6.7 22 -3.4 22 0 22 C0 14.74 0 7.48 0 0 Z " fill="#FEFEFE" transform="translate(395,351)"/>
<path d="M0 0 C3.3 0 6.6 0 10 0 C10 3.3 10 6.6 10 10 C16.6 10 23.2 10 30 10 C30 13.3 30 16.6 30 20 C33.96 20 37.92 20 42 20 C42 26.6 42 33.2 42 40 C38.7 40 35.4 40 32 40 C32 36.7 32 33.4 32 30 C28.04 30 24.08 30 20 30 C20 33.3 20 36.6 20 40 C23.3 40 26.6 40 30 40 C30 46.6 30 53.2 30 60 C23.4 60 16.8 60 10 60 C10 56.7 10 53.4 10 50 C0.1 50 -9.8 50 -20 50 C-20 43.4 -20 36.8 -20 30 C-16.7 30 -13.4 30 -10 30 C-10 33.3 -10 36.6 -10 40 C-6.7 40 -3.4 40 0 40 C0 26.8 0 13.6 0 0 Z " fill="#FEFEFE" transform="translate(167,311)"/>
<path d="M0 0 C5.94 0 11.88 0 18 0 C18 0.66 18 1.32 18 2 C18.66 2 19.32 2 20 2 C20 5.3 20 8.6 20 12 C16.7 12 13.4 12 10 12 C10 21.9 10 31.8 10 42 C16.6 42 23.2 42 30 42 C30 49.26 30 56.52 30 64 C26.7 64 23.4 64 20 64 C20 60.7 20 57.4 20 54 C16.7 54 13.4 54 10 54 C10 60.6 10 67.2 10 74 C2.74 74 -4.52 74 -12 74 C-12 70.7 -12 67.4 -12 64 C-8.7 64 -5.4 64 -2 64 C-2 60.7 -2 57.4 -2 54 C-4.64 54 -7.28 54 -10 54 C-10 53.34 -10 52.68 -10 52 C-10.66 52 -11.32 52 -12 52 C-12 45.4 -12 38.8 -12 32 C-8.7 32 -5.4 32 -2 32 C-2 28.7 -2 25.4 -2 22 C-5.3 22 -8.6 22 -12 22 C-12 18.7 -12 15.4 -12 12 C-8.7 12 -5.4 12 -2 12 C-2 8.7 -2 5.4 -2 2 C-1.34 2 -0.68 2 0 2 C0 1.34 0 0.68 0 0 Z " fill="#000000" transform="translate(479,143)"/>
<path d="M0 0 C3.3 0 6.6 0 10 0 C10 6.6 10 13.2 10 20 C13.96 20 17.92 20 22 20 C22 18.02 22 16.04 22 14 C21.34 14 20.68 14 20 14 C20 13.34 20 12.68 20 12 C20.66 12 21.32 12 22 12 C22 11.34 22 10.68 22 10 C24.64 10 27.28 10 30 10 C30 13.3 30 16.6 30 20 C36.6 20 43.2 20 50 20 C50 20.66 50 21.32 50 22 C50.66 22 51.32 22 52 22 C52 24.64 52 27.28 52 30 C48.7 30 45.4 30 42 30 C42 36.6 42 43.2 42 50 C41.34 50 40.68 50 40 50 C40 50.66 40 51.32 40 52 C36.7 52 33.4 52 30 52 C30 55.3 30 58.6 30 62 C27.36 62 24.72 62 22 62 C22 52.1 22 42.2 22 32 C21.34 32 20.68 32 20 32 C20 31.34 20 30.68 20 30 C16.7 30 13.4 30 10 30 C10 37.26 10 44.52 10 52 C6.7 52 3.4 52 0 52 C0 41.44 0 30.88 0 20 C-3.3 20 -6.6 20 -10 20 C-10 16.7 -10 13.4 -10 10 C-6.7 10 -3.4 10 0 10 C0 6.7 0 3.4 0 0 Z " fill="#FEFEFE" transform="translate(115,279)"/>
<path d="M0 0 C20.46 0 40.92 0 62 0 C62 2.97 62 5.94 62 9 C65.3 9 68.6 9 72 9 C72 14.94 72 20.88 72 27 C72.66 27 73.32 27 74 27 C74 27.66 74 28.32 74 29 C70.04 29 66.08 29 62 29 C62 28.34 62 27.68 62 27 C62.66 27 63.32 27 64 27 C64 25.02 64 23.04 64 21 C63.34 21 62.68 21 62 21 C62 20.34 62 19.68 62 19 C55.4 19 48.8 19 42 19 C42 15.7 42 12.4 42 9 C35.4 9 28.8 9 22 9 C22 12.96 22 16.92 22 21 C25.3 21 28.6 21 32 21 C32 23.64 32 26.28 32 29 C25.4 29 18.8 29 12 29 C12 26.36 12 23.72 12 21 C11.34 21 10.68 21 10 21 C10 20.34 10 19.68 10 19 C6.7 19 3.4 19 0 19 C0 22.3 0 25.6 0 29 C-3.3 29 -6.6 29 -10 29 C-10 22.4 -10 15.8 -10 9 C-6.7 9 -3.4 9 0 9 C0 6.03 0 3.06 0 0 Z " fill="#FEFEFE" transform="translate(187,0)"/>
<path d="M0 0 C2.64 0 5.28 0 8 0 C8 13.86 8 27.72 8 42 C4.7 42 1.4 42 -2 42 C-2 45.3 -2 48.6 -2 52 C-5.3 52 -8.6 52 -12 52 C-12 55.3 -12 58.6 -12 62 C-8.7 62 -5.4 62 -2 62 C-2 72.56 -2 83.12 -2 94 C-5.3 94 -8.6 94 -12 94 C-12 86.74 -12 79.48 -12 72 C-15.3 72 -18.6 72 -22 72 C-22 62.1 -22 52.2 -22 42 C-18.7 42 -15.4 42 -12 42 C-12 38.7 -12 35.4 -12 32 C-15.3 32 -18.6 32 -22 32 C-22 24.74 -22 17.48 -22 10 C-18.7 10 -15.4 10 -12 10 C-12 13.96 -12 17.92 -12 22 C-8.7 22 -5.4 22 -2 22 C-2 21.34 -2 20.68 -2 20 C-1.34 20 -0.68 20 0 20 C0 14.72 0 9.44 0 4 C-0.66 4 -1.32 4 -2 4 C-2 3.34 -2 2.68 -2 2 C-1.34 2 -0.68 2 0 2 C0 1.34 0 0.68 0 0 Z " fill="#FEFEFE" transform="translate(23,175)"/>
<path d="M0 0 C6.6 0 13.2 0 20 0 C20 3.3 20 6.6 20 10 C23.3 10 26.6 10 30 10 C30 16.6 30 23.2 30 30 C33.3 30 36.6 30 40 30 C40 33.3 40 36.6 40 40 C36.7 40 33.4 40 30 40 C30 57.16 30 74.32 30 92 C26.7 92 23.4 92 20 92 C20 85.4 20 78.8 20 72 C16.7 72 13.4 72 10 72 C10 68.7 10 65.4 10 62 C13.3 62 16.6 62 20 62 C20 51.44 20 40.88 20 30 C16.7 30 13.4 30 10 30 C10 23.4 10 16.8 10 10 C6.7 10 3.4 10 0 10 C0 6.7 0 3.4 0 0 Z " fill="#FEFEFE" transform="translate(147,145)"/>
<path d="M0 0 C10.56 0 21.12 0 32 0 C32 6.6 32 13.2 32 20 C35.3 20 38.6 20 42 20 C42 23.3 42 26.6 42 30 C45.3 30 48.6 30 52 30 C52 33.3 52 36.6 52 40 C48.7 40 45.4 40 42 40 C42 47.26 42 54.52 42 62 C38.7 62 35.4 62 32 62 C32 51.44 32 40.88 32 30 C28.7 30 25.4 30 22 30 C22 36.6 22 43.2 22 50 C21.34 50 20.68 50 20 50 C20 50.66 20 51.32 20 52 C17.36 52 14.72 52 12 52 C12 41.44 12 30.88 12 20 C15.3 20 18.6 20 22 20 C22 16.7 22 13.4 22 10 C14.74 10 7.48 10 0 10 C0 6.7 0 3.4 0 0 Z " fill="#FEFEFE" transform="translate(187,269)"/>
<path d="M0 0 C3.3 0 6.6 0 10 0 C10 3.3 10 6.6 10 10 C13.3 10 16.6 10 20 10 C20 10.66 20 11.32 20 12 C20.66 12 21.32 12 22 12 C22 20.58 22 29.16 22 38 C21.34 38 20.68 38 20 38 C20 38.66 20 39.32 20 40 C20.66 40 21.32 40 22 40 C22 40.66 22 41.32 22 42 C28.6 42 35.2 42 42 42 C42 45.3 42 48.6 42 52 C38.7 52 35.4 52 32 52 C32 55.3 32 58.6 32 62 C31.34 62 30.68 62 30 62 C30 62.66 30 63.32 30 64 C20.1 64 10.2 64 0 64 C0 60.04 0 56.08 0 52 C3.3 52 6.6 52 10 52 C10 42.1 10 32.2 10 22 C6.7 22 3.4 22 0 22 C0 14.74 0 7.48 0 0 Z " fill="#000000" transform="translate(1,361)"/>
<path d="M0 0 C3.96 0 7.92 0 12 0 C12 3.3 12 6.6 12 10 C15.3 10 18.6 10 22 10 C22 13.3 22 16.6 22 20 C25.3 20 28.6 20 32 20 C32 27.26 32 34.52 32 42 C28.7 42 25.4 42 22 42 C22 45.3 22 48.6 22 52 C14.74 52 7.48 52 0 52 C0 48.7 0 45.4 0 42 C0.66 42 1.32 42 2 42 C2 41.34 2 40.68 2 40 C5.3 40 8.6 40 12 40 C12 39.34 12 38.68 12 38 C11.34 38 10.68 38 10 38 C10 36.68 10 35.36 10 34 C10.66 34 11.32 34 12 34 C12 33.34 12 32.68 12 32 C11.34 32 10.68 32 10 32 C10 31.34 10 30.68 10 30 C3.4 30 -3.2 30 -10 30 C-10 26.7 -10 23.4 -10 20 C-3.4 20 3.2 20 10 20 C10 16.7 10 13.4 10 10 C6.7 10 3.4 10 0 10 C0 6.7 0 3.4 0 0 Z " fill="#000000" transform="translate(363,269)"/>
<path d="M0 0 C3.3 0 6.6 0 10 0 C10 3.3 10 6.6 10 10 C13.3 10 16.6 10 20 10 C20 13.3 20 16.6 20 20 C16.7 20 13.4 20 10 20 C10 23.3 10 26.6 10 30 C16.6 30 23.2 30 30 30 C30 33.3 30 36.6 30 40 C33.3 40 36.6 40 40 40 C40 47.26 40 54.52 40 62 C37.36 62 34.72 62 32 62 C32 61.34 32 60.68 32 60 C31.34 60 30.68 60 30 60 C30 56.7 30 53.4 30 50 C26.7 50 23.4 50 20 50 C20 46.7 20 43.4 20 40 C13.4 40 6.8 40 0 40 C0 36.7 0 33.4 0 30 C-3.3 30 -6.6 30 -10 30 C-10 26.7 -10 23.4 -10 20 C-6.7 20 -3.4 20 0 20 C0 13.4 0 6.8 0 0 Z " fill="#FEFEFE" transform="translate(157,373)"/>
<path d="M0 0 C10.56 0 21.12 0 32 0 C32 10.56 32 21.12 32 32 C21.44 32 10.88 32 0 32 C0 21.44 0 10.88 0 0 Z " fill="#000000" transform="translate(21,455)"/>
<path d="M0 0 C10.56 0 21.12 0 32 0 C32 10.56 32 21.12 32 32 C21.44 32 10.88 32 0 32 C0 21.44 0 10.88 0 0 Z " fill="#000000" transform="translate(457,19)"/>
<path d="M0 0 C10.56 0 21.12 0 32 0 C32 10.56 32 21.12 32 32 C21.44 32 10.88 32 0 32 C0 21.44 0 10.88 0 0 Z " fill="#000000" transform="translate(21,19)"/>
<path d="M0 0 C9.24 0 18.48 0 28 0 C28 0.66 28 1.32 28 2 C28.66 2 29.32 2 30 2 C30 11.24 30 20.48 30 30 C29.34 30 28.68 30 28 30 C28 30.66 28 31.32 28 32 C18.76 32 9.52 32 0 32 C0 31.34 0 30.68 0 30 C-0.66 30 -1.32 30 -2 30 C-2 20.76 -2 11.52 -2 2 C-1.34 2 -0.68 2 0 2 C0 1.34 0 0.68 0 0 Z " fill="#FEFEFE" transform="translate(241,237)"/>
<path d="M0 0 C10.56 0 21.12 0 32 0 C32 9.9 32 19.8 32 30 C21.44 30 10.88 30 0 30 C0 20.1 0 10.2 0 0 Z " fill="#FEFEFE" transform="translate(239,425)"/>
<path d="M0 0 C9.9 0 19.8 0 30 0 C30 10.56 30 21.12 30 32 C20.1 32 10.2 32 0 32 C0 21.44 0 10.88 0 0 Z " fill="#FEFEFE" transform="translate(427,237)"/>
<path d="M0 0 C9.9 0 19.8 0 30 0 C30 10.56 30 21.12 30 32 C20.1 32 10.2 32 0 32 C0 21.44 0 10.88 0 0 Z " fill="#FEFEFE" transform="translate(53,237)"/>
<path d="M0 0 C10.56 0 21.12 0 32 0 C32 9.9 32 19.8 32 30 C21.44 30 10.88 30 0 30 C0 20.1 0 10.2 0 0 Z " fill="#FEFEFE" transform="translate(239,51)"/>
<path d="M0 0 C6.6 0 13.2 0 20 0 C20 6.6 20 13.2 20 20 C23.3 20 26.6 20 30 20 C30 23.3 30 26.6 30 30 C36.6 30 43.2 30 50 30 C50 30.66 50 31.32 50 32 C50.66 32 51.32 32 52 32 C52 34.64 52 37.28 52 40 C48.7 40 45.4 40 42 40 C42 43.3 42 46.6 42 50 C41.34 50 40.68 50 40 50 C40 50.66 40 51.32 40 52 C37.36 52 34.72 52 32 52 C32 48.7 32 45.4 32 42 C31.34 42 30.68 42 30 42 C30 41.34 30 40.68 30 40 C27.36 40 24.72 40 22 40 C22 37.36 22 34.72 22 32 C21.34 32 20.68 32 20 32 C20 31.34 20 30.68 20 30 C16.7 30 13.4 30 10 30 C10 23.4 10 16.8 10 10 C6.7 10 3.4 10 0 10 C0 6.7 0 3.4 0 0 Z " fill="#FEFEFE" transform="translate(343,383)"/>
<path d="M0 0 C9.9 0 19.8 0 30 0 C30 9.9 30 19.8 30 30 C20.1 30 10.2 30 0 30 C0 20.1 0 10.2 0 0 Z " fill="#FEFEFE" transform="translate(427,425)"/>
<path d="M0 0 C3.3 0 6.6 0 10 0 C10 6.6 10 13.2 10 20 C6.7 20 3.4 20 0 20 C0 23.3 0 26.6 0 30 C-3.96 30 -7.92 30 -12 30 C-12 33.3 -12 36.6 -12 40 C-8.04 40 -4.08 40 0 40 C0 43.3 0 46.6 0 50 C-6.6 50 -13.2 50 -20 50 C-20 43.4 -20 36.8 -20 30 C-23.96 30 -27.92 30 -32 30 C-32 26.7 -32 23.4 -32 20 C-24.74 20 -17.48 20 -10 20 C-10 16.7 -10 13.4 -10 10 C-6.7 10 -3.4 10 0 10 C0 6.7 0 3.4 0 0 Z " fill="#FEFEFE" transform="translate(385,135)"/>
<path d="M0 0 C3.3 0 6.6 0 10 0 C10 3.3 10 6.6 10 10 C17.26 10 24.52 10 32 10 C32 6.7 32 3.4 32 0 C35.3 0 38.6 0 42 0 C42 3.3 42 6.6 42 10 C45.3 10 48.6 10 52 10 C52 6.7 52 3.4 52 0 C58.6 0 65.2 0 72 0 C72 3.3 72 6.6 72 10 C85.86 10 99.72 10 114 10 C114 6.7 114 3.4 114 0 C120.6 0 127.2 0 134 0 C134 3.3 134 6.6 134 10 C135.98 10 137.96 10 140 10 C140 10.33 140 10.66 140 11 C58.16 11 -23.68 11 -108 11 C-108 10.67 -108 10.34 -108 10 C-72.36 10 -36.72 10 0 10 C0 6.7 0 3.4 0 0 Z " fill="#282828" transform="translate(115,497)"/>
<path d="M0 0 C3.3 0 6.6 0 10 0 C10 3.3 10 6.6 10 10 C23.86 10 37.72 10 52 10 C52 13.3 52 16.6 52 20 C38.14 20 24.28 20 10 20 C10 23.3 10 26.6 10 30 C6.7 30 3.4 30 0 30 C0 26.7 0 23.4 0 20 C-3.96 20 -7.92 20 -12 20 C-12 16.7 -12 13.4 -12 10 C-8.04 10 -4.08 10 0 10 C0 6.7 0 3.4 0 0 Z " fill="#000000" transform="translate(385,155)"/>
<path d="M0 0 C3.96 0 7.92 0 12 0 C12 6.6 12 13.2 12 20 C8.7 20 5.4 20 2 20 C2 29.9 2 39.8 2 50 C1.34 50 0.68 50 0 50 C0 50.66 0 51.32 0 52 C-3.3 52 -6.6 52 -10 52 C-10 58.6 -10 65.2 -10 72 C-13.3 72 -16.6 72 -20 72 C-20 65.4 -20 58.8 -20 52 C-19.34 52 -18.68 52 -18 52 C-18 51.34 -18 50.68 -18 50 C-15.36 50 -12.72 50 -10 50 C-10 40.1 -10 30.2 -10 20 C-6.7 20 -3.4 20 0 20 C0 13.4 0 6.8 0 0 Z " fill="#000000" transform="translate(363,207)"/>
<path d="M0 0 C3.3 0 6.6 0 10 0 C10 3.3 10 6.6 10 10 C13.96 10 17.92 10 22 10 C22 6.7 22 3.4 22 0 C24.64 0 27.28 0 30 0 C30 3.3 30 6.6 30 10 C33.3 10 36.6 10 40 10 C40 10.66 40 11.32 40 12 C40.66 12 41.32 12 42 12 C42 17.94 42 23.88 42 30 C41.34 30 40.68 30 40 30 C40 30.66 40 31.32 40 32 C37.36 32 34.72 32 32 32 C32 28.7 32 25.4 32 22 C31.34 22 30.68 22 30 22 C30 21.34 30 20.68 30 20 C27.36 20 24.72 20 22 20 C22 20.66 22 21.32 22 22 C21.34 22 20.68 22 20 22 C20 25.3 20 28.6 20 32 C17.36 32 14.72 32 12 32 C12 31.34 12 30.68 12 30 C11.34 30 10.68 30 10 30 C10 26.7 10 23.4 10 20 C6.7 20 3.4 20 0 20 C0 13.4 0 6.8 0 0 Z " fill="#FEFEFE" transform="translate(343,61)"/>
<path d="M0 0 C6.6 0 13.2 0 20 0 C20 3.3 20 6.6 20 10 C23.96 10 27.92 10 32 10 C32 23.86 32 37.72 32 52 C28.7 52 25.4 52 22 52 C22 45.4 22 38.8 22 32 C21.34 32 20.68 32 20 32 C20 31.34 20 30.68 20 30 C16.7 30 13.4 30 10 30 C10 29.34 10 28.68 10 28 C10.66 28 11.32 28 12 28 C12 22.72 12 17.44 12 12 C11.34 12 10.68 12 10 12 C10 11.34 10 10.68 10 10 C6.7 10 3.4 10 0 10 C0 6.7 0 3.4 0 0 Z " fill="#FEFEFE" transform="translate(11,279)"/>
<path d="M0 0 C13.2 0 26.4 0 40 0 C40 6.27 40 12.54 40 19 C36.7 19 33.4 19 30 19 C30 22.3 30 25.6 30 29 C20.1 29 10.2 29 0 29 C0 26.36 0 23.72 0 21 C6.6 21 13.2 21 20 21 C20 17.04 20 13.08 20 9 C13.4 9 6.8 9 0 9 C0 6.03 0 3.06 0 0 Z " fill="#FEFEFE" transform="translate(271,0)"/>
<path d="M0 0 C3.96 0 7.92 0 12 0 C12 3.3 12 6.6 12 10 C15.3 10 18.6 10 22 10 C22 17.26 22 24.52 22 32 C18.7 32 15.4 32 12 32 C12 28.7 12 25.4 12 22 C11.34 22 10.68 22 10 22 C10 21.34 10 20.68 10 20 C7.36 20 4.72 20 2 20 C2 23.3 2 26.6 2 30 C1.34 30 0.68 30 0 30 C0 30.66 0 31.32 0 32 C-2.64 32 -5.28 32 -8 32 C-8 31.34 -8 30.68 -8 30 C-8.66 30 -9.32 30 -10 30 C-10 26.7 -10 23.4 -10 20 C-13.3 20 -16.6 20 -20 20 C-20 16.7 -20 13.4 -20 10 C-13.4 10 -6.8 10 0 10 C0 9.34 0 8.68 0 8 C0.66 8 1.32 8 2 8 C2 7.34 2 6.68 2 6 C1.34 6 0.68 6 0 6 C0 4.02 0 2.04 0 0 Z " fill="#000000" transform="translate(487,103)"/>
<path d="M0 0 C7.26 0 14.52 0 22 0 C22 0.66 22 1.32 22 2 C21.34 2 20.68 2 20 2 C20 7.28 20 12.56 20 18 C20.66 18 21.32 18 22 18 C22 18.66 22 19.32 22 20 C28.6 20 35.2 20 42 20 C42 23.3 42 26.6 42 30 C35.4 30 28.8 30 22 30 C22 30.66 22 31.32 22 32 C21.34 32 20.68 32 20 32 C20 33.98 20 35.96 20 38 C20.66 38 21.32 38 22 38 C22 38.66 22 39.32 22 40 C18.7 40 15.4 40 12 40 C12 37.36 12 34.72 12 32 C11.34 32 10.68 32 10 32 C10 31.34 10 30.68 10 30 C6.7 30 3.4 30 0 30 C0 27.36 0 24.72 0 22 C0.66 22 1.32 22 2 22 C2 21.34 2 20.68 2 20 C5.3 20 8.6 20 12 20 C12 16.7 12 13.4 12 10 C8.7 10 5.4 10 2 10 C2 9.34 2 8.68 2 8 C1.34 8 0.68 8 0 8 C0 5.36 0 2.72 0 0 Z " fill="#FEFEFE" transform="translate(467,435)"/>
<path d="M0 0 C9.9 0 19.8 0 30 0 C30 0.66 30 1.32 30 2 C30.66 2 31.32 2 32 2 C32 5.3 32 8.6 32 12 C24.74 12 17.48 12 10 12 C10 18.6 10 25.2 10 32 C6.7 32 3.4 32 0 32 C0 28.7 0 25.4 0 22 C-3.3 22 -6.6 22 -10 22 C-10 18.7 -10 15.4 -10 12 C-7.36 12 -4.72 12 -2 12 C-2 11.34 -2 10.68 -2 10 C-1.34 10 -0.68 10 0 10 C0 6.7 0 3.4 0 0 Z " fill="#000000" transform="translate(457,81)"/>
<path d="M0 0 C3.3 0 6.6 0 10 0 C10 3.3 10 6.6 10 10 C16.6 10 23.2 10 30 10 C30 20.56 30 31.12 30 42 C26.7 42 23.4 42 20 42 C20 35.4 20 28.8 20 22 C13.4 22 6.8 22 0 22 C0 14.74 0 7.48 0 0 Z " fill="#000000" transform="translate(323,185)"/>
<path d="M0 0 C3.3 0 6.6 0 10 0 C10 7.26 10 14.52 10 22 C13.3 22 16.6 22 20 22 C20 28.6 20 35.2 20 42 C16.7 42 13.4 42 10 42 C10 38.7 10 35.4 10 32 C3.4 32 -3.2 32 -10 32 C-10 28.7 -10 25.4 -10 22 C-6.7 22 -3.4 22 0 22 C0 14.74 0 7.48 0 0 Z " fill="#FEFEFE" transform="translate(271,465)"/>
<path d="M0 0 C3.3 0 6.6 0 10 0 C10 3.3 10 6.6 10 10 C13.96 10 17.92 10 22 10 C22 6.7 22 3.4 22 0 C25.3 0 28.6 0 32 0 C32 6.6 32 13.2 32 20 C18.14 20 4.28 20 -10 20 C-10 16.7 -10 13.4 -10 10 C-6.7 10 -3.4 10 0 10 C0 6.7 0 3.4 0 0 Z " fill="#FEFEFE" transform="translate(405,145)"/>
<path d="M0 0 C2.64 0 5.28 0 8 0 C8 0.66 8 1.32 8 2 C8.66 2 9.32 2 10 2 C10 4.64 10 7.28 10 10 C13.3 10 16.6 10 20 10 C20 6.7 20 3.4 20 0 C23.3 0 26.6 0 30 0 C30 10.56 30 21.12 30 32 C26.7 32 23.4 32 20 32 C20 28.04 20 24.08 20 20 C13.4 20 6.8 20 0 20 C0 13.4 0 6.8 0 0 Z " fill="#FEFEFE" transform="translate(199,175)"/>
<path d="M0 0 C6.6 0 13.2 0 20 0 C20 6.6 20 13.2 20 20 C23.3 20 26.6 20 30 20 C30 20.66 30 21.32 30 22 C30.66 22 31.32 22 32 22 C32 22.66 32 23.32 32 24 C31.34 24 30.68 24 30 24 C30 25.32 30 26.64 30 28 C30.66 28 31.32 28 32 28 C32 28.66 32 29.32 32 30 C24.74 30 17.48 30 10 30 C10 26.7 10 23.4 10 20 C6.7 20 3.4 20 0 20 C0 13.4 0 6.8 0 0 Z " fill="#FEFEFE" transform="translate(457,393)"/>
<path d="M0 0 C6.6 0 13.2 0 20 0 C20 3.3 20 6.6 20 10 C23.96 10 27.92 10 32 10 C32 16.6 32 23.2 32 30 C25.4 30 18.8 30 12 30 C12 24.06 12 18.12 12 12 C11.34 12 10.68 12 10 12 C10 11.34 10 10.68 10 10 C6.7 10 3.4 10 0 10 C0 6.7 0 3.4 0 0 Z " fill="#FEFEFE" transform="translate(125,103)"/>
<path d="M0 0 C0.33 0 0.66 0 1 0 C1 33.99 1 67.98 1 103 C4.3 103 7.6 103 11 103 C11 106.3 11 109.6 11 113 C7.7 113 4.4 113 1 113 C1 123.56 1 134.12 1 145 C4.3 145 7.6 145 11 145 C11 148.3 11 151.6 11 155 C7.7 155 4.4 155 1 155 C1 172.16 1 189.32 1 207 C4.3 207 7.6 207 11 207 C11 210.3 11 213.6 11 217 C7.7 217 4.4 217 1 217 C1 219.31 1 221.62 1 224 C0.67 224 0.34 224 0 224 C0 150.08 0 76.16 0 0 Z " fill="#272727" transform="translate(0,0)"/>
<path d="M0 0 C2.64 0 5.28 0 8 0 C8 0.66 8 1.32 8 2 C8.66 2 9.32 2 10 2 C10 7.94 10 13.88 10 20 C6.7 20 3.4 20 0 20 C0 20.66 0 21.32 0 22 C-0.66 22 -1.32 22 -2 22 C-2 24.64 -2 27.28 -2 30 C-8.6 30 -15.2 30 -22 30 C-22 27.36 -22 24.72 -22 22 C-21.34 22 -20.68 22 -20 22 C-20 21.34 -20 20.68 -20 20 C-17.36 20 -14.72 20 -12 20 C-12 17.36 -12 14.72 -12 12 C-11.34 12 -10.68 12 -10 12 C-10 11.34 -10 10.68 -10 10 C-6.7 10 -3.4 10 0 10 C0 6.7 0 3.4 0 0 Z " fill="#FEFEFE" transform="translate(85,279)"/>
<path d="M0 0 C3.3 0 6.6 0 10 0 C10 13.2 10 26.4 10 40 C6.7 40 3.4 40 0 40 C0 33.4 0 26.8 0 20 C-3.3 20 -6.6 20 -10 20 C-10 19.34 -10 18.68 -10 18 C-10.66 18 -11.32 18 -12 18 C-12 17.34 -12 16.68 -12 16 C-11.34 16 -10.68 16 -10 16 C-10 14.68 -10 13.36 -10 12 C-10.66 12 -11.32 12 -12 12 C-12 11.34 -12 10.68 -12 10 C-8.7 10 -5.4 10 -2 10 C-2 9.34 -2 8.68 -2 8 C-1.34 8 -0.68 8 0 8 C0 5.36 0 2.72 0 0 Z " fill="#FEFEFE" transform="translate(33,135)"/>
<path d="M0 0 C10.56 0 21.12 0 32 0 C32 0.66 32 1.32 32 2 C31.34 2 30.68 2 30 2 C30 3.32 30 4.64 30 6 C30.66 6 31.32 6 32 6 C32 6.66 32 7.32 32 8 C31.34 8 30.68 8 30 8 C30 8.66 30 9.32 30 10 C26.7 10 23.4 10 20 10 C20 13.3 20 16.6 20 20 C13.4 20 6.8 20 0 20 C0 13.4 0 6.8 0 0 Z " fill="#FEFEFE" transform="translate(457,487)"/>
<path d="M0 0 C6.6 0 13.2 0 20 0 C20 6.6 20 13.2 20 20 C10.1 20 0.2 20 -10 20 C-10 16.7 -10 13.4 -10 10 C-6.7 10 -3.4 10 0 10 C0 6.7 0 3.4 0 0 Z " fill="#FEFEFE" transform="translate(229,207)"/>
<path d="M0 0 C3.3 0 6.6 0 10 0 C10 3.3 10 6.6 10 10 C13.3 10 16.6 10 20 10 C20 13.3 20 16.6 20 20 C16.7 20 13.4 20 10 20 C10 23.3 10 26.6 10 30 C3.4 30 -3.2 30 -10 30 C-10 26.7 -10 23.4 -10 20 C-6.7 20 -3.4 20 0 20 C0 13.4 0 6.8 0 0 Z " fill="#FEFEFE" transform="translate(53,165)"/>
<path d="M0 0 C3.3 0 6.6 0 10 0 C10 3.3 10 6.6 10 10 C13.3 10 16.6 10 20 10 C20 16.6 20 23.2 20 30 C13.4 30 6.8 30 0 30 C0 20.1 0 10.2 0 0 Z " fill="#FEFEFE" transform="translate(489,155)"/>
<path d="M0 0 C3.3 0 6.6 0 10 0 C10 13.2 10 26.4 10 40 C6.7 40 3.4 40 0 40 C0 33.4 0 26.8 0 20 C-3.3 20 -6.6 20 -10 20 C-10 16.7 -10 13.4 -10 10 C-6.7 10 -3.4 10 0 10 C0 6.7 0 3.4 0 0 Z " fill="#FEFEFE" transform="translate(219,31)"/>
<path d="M0 0 C9.9 0 19.8 0 30 0 C30 3.3 30 6.6 30 10 C26.7 10 23.4 10 20 10 C20 13.3 20 16.6 20 20 C16.7 20 13.4 20 10 20 C10 16.7 10 13.4 10 10 C6.7 10 3.4 10 0 10 C0 6.7 0 3.4 0 0 Z " fill="#FEFEFE" transform="translate(281,425)"/>
<path d="M0 0 C3.3 0 6.6 0 10 0 C10 9.9 10 19.8 10 30 C3.4 30 -3.2 30 -10 30 C-10 26.7 -10 23.4 -10 20 C-6.7 20 -3.4 20 0 20 C0 13.4 0 6.8 0 0 Z " fill="#FEFEFE" transform="translate(499,383)"/>
<path d="M0 0 C9.9 0 19.8 0 30 0 C30 3.3 30 6.6 30 10 C26.7 10 23.4 10 20 10 C20 13.3 20 16.6 20 20 C16.7 20 13.4 20 10 20 C10 16.7 10 13.4 10 10 C6.7 10 3.4 10 0 10 C0 6.7 0 3.4 0 0 Z " fill="#FEFEFE" transform="translate(43,279)"/>
<path d="M0 0 C3.3 0 6.6 0 10 0 C10 9.9 10 19.8 10 30 C6.7 30 3.4 30 0 30 C0 26.7 0 23.4 0 20 C-3.3 20 -6.6 20 -10 20 C-10 16.7 -10 13.4 -10 10 C-6.7 10 -3.4 10 0 10 C0 6.7 0 3.4 0 0 Z " fill="#FEFEFE" transform="translate(467,269)"/>
<path d="M0 0 C6.6 0 13.2 0 20 0 C20 3.3 20 6.6 20 10 C23.3 10 26.6 10 30 10 C30 13.3 30 16.6 30 20 C23.4 20 16.8 20 10 20 C10 16.7 10 13.4 10 10 C6.7 10 3.4 10 0 10 C0 6.7 0 3.4 0 0 Z " fill="#FEFEFE" transform="translate(43,207)"/>
<path d="M0 0 C9.9 0 19.8 0 30 0 C30 3.3 30 6.6 30 10 C26.7 10 23.4 10 20 10 C20 13.3 20 16.6 20 20 C16.7 20 13.4 20 10 20 C10 16.7 10 13.4 10 10 C6.7 10 3.4 10 0 10 C0 6.7 0 3.4 0 0 Z " fill="#FEFEFE" transform="translate(85,93)"/>
<path d="M0 0 C3.3 0 6.6 0 10 0 C10 0.66 10 1.32 10 2 C9.34 2 8.68 2 8 2 C8 3.98 8 5.96 8 8 C8.66 8 9.32 8 10 8 C10 8.66 10 9.32 10 10 C13.3 10 16.6 10 20 10 C20 16.6 20 23.2 20 30 C16.7 30 13.4 30 10 30 C10 26.7 10 23.4 10 20 C6.7 20 3.4 20 0 20 C0 13.4 0 6.8 0 0 Z " fill="#FEFEFE" transform="translate(479,311)"/>
<path d="M0 0 C2.64 0 5.28 0 8 0 C8 2.64 8 5.28 8 8 C8.66 8 9.32 8 10 8 C10 8.66 10 9.32 10 10 C13.3 10 16.6 10 20 10 C20 16.6 20 23.2 20 30 C16.7 30 13.4 30 10 30 C10 26.7 10 23.4 10 20 C6.7 20 3.4 20 0 20 C0 13.4 0 6.8 0 0 Z " fill="#FEFEFE" transform="translate(365,93)"/>
<path d="M0 0 C9.9 0 19.8 0 30 0 C30 2.97 30 5.94 30 9 C26.7 9 23.4 9 20 9 C20 12.3 20 15.6 20 19 C16.7 19 13.4 19 10 19 C10 15.7 10 12.4 10 9 C6.7 9 3.4 9 0 9 C0 6.03 0 3.06 0 0 Z " fill="#FEFEFE" transform="translate(115,0)"/>
<path d="M0 0 C7.26 0 14.52 0 22 0 C22 2.64 22 5.28 22 8 C21.34 8 20.68 8 20 8 C20 8.66 20 9.32 20 10 C16.7 10 13.4 10 10 10 C10 13.3 10 16.6 10 20 C6.7 20 3.4 20 0 20 C0 13.4 0 6.8 0 0 Z " fill="#FEFEFE" transform="translate(187,383)"/>
<path d="M0 0 C2.64 0 5.28 0 8 0 C8 7.26 8 14.52 8 22 C1.4 22 -5.2 22 -12 22 C-12 18.7 -12 15.4 -12 12 C-8.7 12 -5.4 12 -2 12 C-2 8.7 -2 5.4 -2 2 C-1.34 2 -0.68 2 0 2 C0 1.34 0 0.68 0 0 Z " fill="#FEFEFE" transform="translate(459,299)"/>
<path d="M0 0 C5.94 0 11.88 0 18 0 C18 2.64 18 5.28 18 8 C18.66 8 19.32 8 20 8 C20 8.66 20 9.32 20 10 C16.7 10 13.4 10 10 10 C10 10.66 10 11.32 10 12 C9.34 12 8.68 12 8 12 C8 14.64 8 17.28 8 20 C4.7 20 1.4 20 -2 20 C-2 14.06 -2 8.12 -2 2 C-1.34 2 -0.68 2 0 2 C0 1.34 0 0.68 0 0 Z " fill="#FEFEFE" transform="translate(355,123)"/>
<path d="M0 0 C6.6 0 13.2 0 20 0 C20 3.3 20 6.6 20 10 C16.7 10 13.4 10 10 10 C10 13.3 10 16.6 10 20 C6.7 20 3.4 20 0 20 C0 13.4 0 6.8 0 0 Z " fill="#FEFEFE" transform="translate(125,383)"/>
<path d="M0 0 C3.3 0 6.6 0 10 0 C10 9.9 10 19.8 10 30 C6.7 30 3.4 30 0 30 C0 20.1 0 10.2 0 0 Z " fill="#FEFEFE" transform="translate(1,383)"/>
<path d="M0 0 C6.6 0 13.2 0 20 0 C20 3.3 20 6.6 20 10 C16.7 10 13.4 10 10 10 C10 13.3 10 16.6 10 20 C6.7 20 3.4 20 0 20 C0 13.4 0 6.8 0 0 Z " fill="#000000" transform="translate(53,331)"/>
<path d="M0 0 C3.3 0 6.6 0 10 0 C10 3.3 10 6.6 10 10 C13.3 10 16.6 10 20 10 C20 13.3 20 16.6 20 20 C13.4 20 6.8 20 0 20 C0 13.4 0 6.8 0 0 Z " fill="#FEFEFE" transform="translate(271,321)"/>
<path d="M0 0 C3.3 0 6.6 0 10 0 C10 9.9 10 19.8 10 30 C6.7 30 3.4 30 0 30 C0 20.1 0 10.2 0 0 Z " fill="#FEFEFE" transform="translate(499,269)"/>
<path d="M0 0 C6.6 0 13.2 0 20 0 C20 3.3 20 6.6 20 10 C16.7 10 13.4 10 10 10 C10 13.3 10 16.6 10 20 C6.7 20 3.4 20 0 20 C0 13.4 0 6.8 0 0 Z " fill="#010101" transform="translate(219,155)"/>
<path d="M0 0 C6.6 0 13.2 0 20 0 C20 6.6 20 13.2 20 20 C16.7 20 13.4 20 10 20 C10 16.7 10 13.4 10 10 C6.7 10 3.4 10 0 10 C0 6.7 0 3.4 0 0 Z " fill="#FEFEFE" transform="translate(95,123)"/>
<path d="M0 0 C6.6 0 13.2 0 20 0 C20 3.3 20 6.6 20 10 C16.7 10 13.4 10 10 10 C10 13.3 10 16.6 10 20 C6.7 20 3.4 20 0 20 C0 13.4 0 6.8 0 0 Z " fill="#FEFEFE" transform="translate(427,113)"/>
<path d="M0 0 C6.6 0 13.2 0 20 0 C20 3.3 20 6.6 20 10 C16.7 10 13.4 10 10 10 C10 13.3 10 16.6 10 20 C6.7 20 3.4 20 0 20 C0 13.4 0 6.8 0 0 Z " fill="#000000" transform="translate(167,51)"/>
<path d="M0 0 C6.6 0 13.2 0 20 0 C20 6.6 20 13.2 20 20 C17.36 20 14.72 20 12 20 C12 19.34 12 18.68 12 18 C11.34 18 10.68 18 10 18 C10 15.36 10 12.72 10 10 C6.7 10 3.4 10 0 10 C0 6.7 0 3.4 0 0 Z " fill="#FEFEFE" transform="translate(177,145)"/>
<path d="M0 0 C3.3 0 6.6 0 10 0 C10 0.66 10 1.32 10 2 C9.34 2 8.68 2 8 2 C8 3.98 8 5.96 8 8 C8.66 8 9.32 8 10 8 C10 8.66 10 9.32 10 10 C13.3 10 16.6 10 20 10 C20 13.3 20 16.6 20 20 C13.4 20 6.8 20 0 20 C0 13.4 0 6.8 0 0 Z " fill="#FEFEFE" transform="translate(479,249)"/>
<path d="M0 0 C10.56 0 21.12 0 32 0 C32 2.97 32 5.94 32 9 C21.44 9 10.88 9 0 9 C0 6.03 0 3.06 0 0 Z " fill="#000000" transform="translate(83,0)"/>
<path d="M0 0 C3.3 0 6.6 0 10 0 C10 7.26 10 14.52 10 22 C6.7 22 3.4 22 0 22 C0 21.34 0 20.68 0 20 C-0.66 20 -1.32 20 -2 20 C-2 14.06 -2 8.12 -2 2 C-1.34 2 -0.68 2 0 2 C0 1.34 0 0.68 0 0 Z " fill="#000000" transform="translate(375,237)"/>
<path d="M0 0 C3.96 0 7.92 0 12 0 C12 3.3 12 6.6 12 10 C15.3 10 18.6 10 22 10 C22 13.3 22 16.6 22 20 C18.04 20 14.08 20 10 20 C10 16.7 10 13.4 10 10 C6.7 10 3.4 10 0 10 C0 6.7 0 3.4 0 0 Z " fill="#000000" transform="translate(363,331)"/>
<path d="M0 0 C3.3 0 6.6 0 10 0 C10 7.26 10 14.52 10 22 C6.7 22 3.4 22 0 22 C0 14.74 0 7.48 0 0 Z " fill="#000000" transform="translate(1,247)"/>
<path d="M0 0 C3.3 0 6.6 0 10 0 C10 7.26 10 14.52 10 22 C6.7 22 3.4 22 0 22 C0 14.74 0 7.48 0 0 Z " fill="#000000" transform="translate(115,185)"/>
<path d="M0 0 C0.33 0 0.66 0 1 0 C1 33.99 1 67.98 1 103 C4.3 103 7.6 103 11 103 C11 106.3 11 109.6 11 113 C7.7 113 4.4 113 1 113 C0.67 113.99 0.34 114.98 0 116 C0 77.72 0 39.44 0 0 Z " fill="#282828" transform="translate(0,0)"/>
<path d="M0 0 C6.6 0 13.2 0 20 0 C20 3.3 20 6.6 20 10 C13.4 10 6.8 10 0 10 C0 6.7 0 3.4 0 0 Z " fill="#FEFEFE" transform="translate(229,497)"/>
<path d="M0 0 C3.3 0 6.6 0 10 0 C10 6.6 10 13.2 10 20 C6.7 20 3.4 20 0 20 C0 13.4 0 6.8 0 0 Z " fill="#FEFEFE" transform="translate(229,465)"/>
<path d="M0 0 C6.6 0 13.2 0 20 0 C20 3.3 20 6.6 20 10 C13.4 10 6.8 10 0 10 C0 6.7 0 3.4 0 0 Z " fill="#FEFEFE" transform="translate(199,435)"/>
<path d="M0 0 C3.3 0 6.6 0 10 0 C10 6.6 10 13.2 10 20 C6.7 20 3.4 20 0 20 C0 13.4 0 6.8 0 0 Z " fill="#FEFEFE" transform="translate(499,425)"/>
<path d="M0 0 C3.3 0 6.6 0 10 0 C10 6.6 10 13.2 10 20 C6.7 20 3.4 20 0 20 C0 13.4 0 6.8 0 0 Z " fill="#FEFEFE" transform="translate(209,403)"/>
<path d="M0 0 C6.6 0 13.2 0 20 0 C20 3.3 20 6.6 20 10 C13.4 10 6.8 10 0 10 C0 6.7 0 3.4 0 0 Z " fill="#000000" transform="translate(53,393)"/>
<path d="M0 0 C6.6 0 13.2 0 20 0 C20 3.3 20 6.6 20 10 C13.4 10 6.8 10 0 10 C0 6.7 0 3.4 0 0 Z " fill="#FEFEFE" transform="translate(261,351)"/>
<path d="M0 0 C3.3 0 6.6 0 10 0 C10 6.6 10 13.2 10 20 C6.7 20 3.4 20 0 20 C0 13.4 0 6.8 0 0 Z " fill="#FEFEFE" transform="translate(499,341)"/>
<path d="M0 0 C3.3 0 6.6 0 10 0 C10 6.6 10 13.2 10 20 C6.7 20 3.4 20 0 20 C0 13.4 0 6.8 0 0 Z " fill="#FEFEFE" transform="translate(43,331)"/>
<path d="M0 0 C6.6 0 13.2 0 20 0 C20 3.3 20 6.6 20 10 C13.4 10 6.8 10 0 10 C0 6.7 0 3.4 0 0 Z " fill="#FEFEFE" transform="translate(53,321)"/>
<path d="M0 0 C6.6 0 13.2 0 20 0 C20 3.3 20 6.6 20 10 C13.4 10 6.8 10 0 10 C0 6.7 0 3.4 0 0 Z " fill="#FEFEFE" transform="translate(1,311)"/>
<path d="M0 0 C3.3 0 6.6 0 10 0 C10 6.6 10 13.2 10 20 C6.7 20 3.4 20 0 20 C0 13.4 0 6.8 0 0 Z " fill="#FEFEFE" transform="translate(239,279)"/>
<path d="M0 0 C3.3 0 6.6 0 10 0 C10 6.6 10 13.2 10 20 C6.7 20 3.4 20 0 20 C0 13.4 0 6.8 0 0 Z " fill="#FEFEFE" transform="translate(281,249)"/>
<path d="M0 0 C3.3 0 6.6 0 10 0 C10 6.6 10 13.2 10 20 C6.7 20 3.4 20 0 20 C0 13.4 0 6.8 0 0 Z " fill="#FEFEFE" transform="translate(209,155)"/>
<path d="M0 0 C3.3 0 6.6 0 10 0 C10 6.6 10 13.2 10 20 C6.7 20 3.4 20 0 20 C0 13.4 0 6.8 0 0 Z " fill="#FEFEFE" transform="translate(395,103)"/>
<path d="M0 0 C3.3 0 6.6 0 10 0 C10 6.6 10 13.2 10 20 C6.7 20 3.4 20 0 20 C0 13.4 0 6.8 0 0 Z " fill="#000000" transform="translate(209,93)"/>
<path d="M0 0 C6.6 0 13.2 0 20 0 C20 3.3 20 6.6 20 10 C13.4 10 6.8 10 0 10 C0 6.7 0 3.4 0 0 Z " fill="#FDFDFD" transform="translate(343,51)"/>
<path d="M0 0 C3.3 0 6.6 0 10 0 C10 6.6 10 13.2 10 20 C7.36 20 4.72 20 2 20 C2 19.34 2 18.68 2 18 C1.34 18 0.68 18 0 18 C0 12.06 0 6.12 0 0 Z " fill="#FEFEFE" transform="translate(187,197)"/>
<path d="M0 0 C6.6 0 13.2 0 20 0 C20 3.3 20 6.6 20 10 C14.06 10 8.12 10 2 10 C2 9.34 2 8.68 2 8 C1.34 8 0.68 8 0 8 C0 5.36 0 2.72 0 0 Z " fill="#FEFEFE" transform="translate(63,197)"/>
<path d="M0 0 C5.94 0 11.88 0 18 0 C18 3.3 18 6.6 18 10 C11.4 10 4.8 10 -2 10 C-2 7.36 -2 4.72 -2 2 C-1.34 2 -0.68 2 0 2 C0 1.34 0 0.68 0 0 Z " fill="#FEFEFE" transform="translate(13,123)"/>
<path d="M0 0 C6.6 0 13.2 0 20 0 C20 2.97 20 5.94 20 9 C13.4 9 6.8 9 0 9 C0 6.03 0 3.06 0 0 Z " fill="#FEFEFE" transform="translate(395,0)"/>
<path d="M0 0 C2.64 0 5.28 0 8 0 C8 6.6 8 13.2 8 20 C5.36 20 2.72 20 0 20 C0 19.34 0 18.68 0 18 C-0.66 18 -1.32 18 -2 18 C-2 17.34 -2 16.68 -2 16 C-1.34 16 -0.68 16 0 16 C0 10.72 0 5.44 0 0 Z " fill="#FEFEFE" transform="translate(137,477)"/>
<path d="M0 0 C2.64 0 5.28 0 8 0 C8 0.66 8 1.32 8 2 C8.66 2 9.32 2 10 2 C10 5.3 10 8.6 10 12 C6.04 12 2.08 12 -2 12 C-2 8.7 -2 5.4 -2 2 C-1.34 2 -0.68 2 0 2 C0 1.34 0 0.68 0 0 Z " fill="#000000" transform="translate(417,485)"/>
<path d="M0 0 C3.3 0 6.6 0 10 0 C10 3.96 10 7.92 10 12 C6.7 12 3.4 12 0 12 C0 11.34 0 10.68 0 10 C-0.66 10 -1.32 10 -2 10 C-2 7.36 -2 4.72 -2 2 C-1.34 2 -0.68 2 0 2 C0 1.34 0 0.68 0 0 Z " fill="#010101" transform="translate(427,81)"/>
<path d="M0 0 C3.3 0 6.6 0 10 0 C10 0.66 10 1.32 10 2 C10.66 2 11.32 2 12 2 C12 4.64 12 7.28 12 10 C11.34 10 10.68 10 10 10 C10 10.66 10 11.32 10 12 C7.36 12 4.72 12 2 12 C2 11.34 2 10.68 2 10 C1.34 10 0.68 10 0 10 C0 6.7 0 3.4 0 0 Z " fill="#000000" transform="translate(415,185)"/>
<path d="M0 0 C2.64 0 5.28 0 8 0 C8 0.66 8 1.32 8 2 C8.66 2 9.32 2 10 2 C10 4.64 10 7.28 10 10 C9.34 10 8.68 10 8 10 C8 10.66 8 11.32 8 12 C4.7 12 1.4 12 -2 12 C-2 8.7 -2 5.4 -2 2 C-1.34 2 -0.68 2 0 2 C0 1.34 0 0.68 0 0 Z " fill="#000000" transform="translate(241,143)"/>
<path d="M0 0 C2.64 0 5.28 0 8 0 C8 0.66 8 1.32 8 2 C8.66 2 9.32 2 10 2 C10 4.64 10 7.28 10 10 C9.34 10 8.68 10 8 10 C8 10.66 8 11.32 8 12 C5.36 12 2.72 12 0 12 C0 11.34 0 10.68 0 10 C-0.66 10 -1.32 10 -2 10 C-2 7.36 -2 4.72 -2 2 C-1.34 2 -0.68 2 0 2 C0 1.34 0 0.68 0 0 Z " fill="#010101" transform="translate(251,247)"/>
<path d="M0 0 C3.96 0 7.92 0 12 0 C12 3.3 12 6.6 12 10 C8.04 10 4.08 10 0 10 C0 6.7 0 3.4 0 0 Z " fill="#010101" transform="translate(249,435)"/>
<path d="M0 0 C3.3 0 6.6 0 10 0 C10 3.96 10 7.92 10 12 C6.7 12 3.4 12 0 12 C0 8.04 0 4.08 0 0 Z " fill="#010101" transform="translate(333,299)"/>
<path d="M0 0 C3.3 0 6.6 0 10 0 C10 3.96 10 7.92 10 12 C6.7 12 3.4 12 0 12 C0 8.04 0 4.08 0 0 Z " fill="#000000" transform="translate(437,247)"/>
<path d="M0 0 C3.3 0 6.6 0 10 0 C10 3.96 10 7.92 10 12 C6.7 12 3.4 12 0 12 C0 8.04 0 4.08 0 0 Z " fill="#000000" transform="translate(63,247)"/>
<path d="M0 0 C3.3 0 6.6 0 10 0 C10 3.96 10 7.92 10 12 C6.7 12 3.4 12 0 12 C0 8.04 0 4.08 0 0 Z " fill="#000000" transform="translate(447,185)"/>
<path d="M0 0 C3.3 0 6.6 0 10 0 C10 3.96 10 7.92 10 12 C6.7 12 3.4 12 0 12 C0 8.04 0 4.08 0 0 Z " fill="#000000" transform="translate(323,133)"/>
<path d="M0 0 C3.96 0 7.92 0 12 0 C12 3.3 12 6.6 12 10 C8.04 10 4.08 10 0 10 C0 6.7 0 3.4 0 0 Z " fill="#000000" transform="translate(259,103)"/>
<path d="M0 0 C3.3 0 6.6 0 10 0 C10 3.96 10 7.92 10 12 C6.7 12 3.4 12 0 12 C0 8.04 0 4.08 0 0 Z " fill="#000000" transform="translate(499,81)"/>
<path d="M0 0 C3.96 0 7.92 0 12 0 C12 3.3 12 6.6 12 10 C8.04 10 4.08 10 0 10 C0 6.7 0 3.4 0 0 Z " fill="#000000" transform="translate(415,61)"/>
<path d="M0 0 C3.96 0 7.92 0 12 0 C12 3.3 12 6.6 12 10 C8.04 10 4.08 10 0 10 C0 6.7 0 3.4 0 0 Z " fill="#010101" transform="translate(249,61)"/>
<path d="M0 0 C3.3 0 6.6 0 10 0 C10 3.96 10 7.92 10 12 C6.7 12 3.4 12 0 12 C0 8.04 0 4.08 0 0 Z " fill="#000000" transform="translate(333,29)"/>
<path d="M0 0 C2.64 0 5.28 0 8 0 C8 0.66 8 1.32 8 2 C8.66 2 9.32 2 10 2 C10 5.3 10 8.6 10 12 C6.7 12 3.4 12 0 12 C0 8.04 0 4.08 0 0 Z " fill="#010101" transform="translate(157,257)"/>
<path d="M0 0 C3.3 0 6.6 0 10 0 C10 3.3 10 6.6 10 10 C6.7 10 3.4 10 0 10 C0 8.02 0 6.04 0 4 C-0.66 4 -1.32 4 -2 4 C-2 3.34 -2 2.68 -2 2 C-1.34 2 -0.68 2 0 2 C0 1.34 0 0.68 0 0 Z " fill="#000000" transform="translate(95,175)"/>
<path d="M0 0 C3.3 0 6.6 0 10 0 C10 3.3 10 6.6 10 10 C6.7 10 3.4 10 0 10 C0 6.7 0 3.4 0 0 Z " fill="#010101" transform="translate(177,497)"/>
<path d="M0 0 C3.3 0 6.6 0 10 0 C10 3.3 10 6.6 10 10 C6.7 10 3.4 10 0 10 C0 6.7 0 3.4 0 0 Z " fill="#FEFEFE" transform="translate(167,497)"/>
<path d="M0 0 C3.3 0 6.6 0 10 0 C10 3.3 10 6.6 10 10 C6.7 10 3.4 10 0 10 C0 6.7 0 3.4 0 0 Z " fill="#FEFEFE" transform="translate(147,497)"/>
<path d="M0 0 C3.3 0 6.6 0 10 0 C10 3.3 10 6.6 10 10 C6.7 10 3.4 10 0 10 C0 6.7 0 3.4 0 0 Z " fill="#FEFEFE" transform="translate(115,497)"/>
<path d="M0 0 C3.3 0 6.6 0 10 0 C10 3.3 10 6.6 10 10 C6.7 10 3.4 10 0 10 C0 6.7 0 3.4 0 0 Z " fill="#010101" transform="translate(291,445)"/>
<path d="M0 0 C3.3 0 6.6 0 10 0 C10 3.3 10 6.6 10 10 C6.7 10 3.4 10 0 10 C0 6.7 0 3.4 0 0 Z " fill="#FDFDFD" transform="translate(281,445)"/>
<path d="M0 0 C3.3 0 6.6 0 10 0 C10 3.3 10 6.6 10 10 C6.7 10 3.4 10 0 10 C0 6.7 0 3.4 0 0 Z " fill="#010101" transform="translate(437,435)"/>
<path d="M0 0 C3.3 0 6.6 0 10 0 C10 3.3 10 6.6 10 10 C6.7 10 3.4 10 0 10 C0 6.7 0 3.4 0 0 Z " fill="#FEFEFE" transform="translate(395,435)"/>
<path d="M0 0 C3.3 0 6.6 0 10 0 C10 3.3 10 6.6 10 10 C6.7 10 3.4 10 0 10 C0 6.7 0 3.4 0 0 Z " fill="#000000" transform="translate(167,435)"/>
<path d="M0 0 C3.3 0 6.6 0 10 0 C10 3.3 10 6.6 10 10 C6.7 10 3.4 10 0 10 C0 6.7 0 3.4 0 0 Z " fill="#FEFEFE" transform="translate(437,383)"/>
<path d="M0 0 C3.3 0 6.6 0 10 0 C10 3.3 10 6.6 10 10 C6.7 10 3.4 10 0 10 C0 6.7 0 3.4 0 0 Z " fill="#000000" transform="translate(43,383)"/>
<path d="M0 0 C3.3 0 6.6 0 10 0 C10 3.3 10 6.6 10 10 C6.7 10 3.4 10 0 10 C0 6.7 0 3.4 0 0 Z " fill="#FDFDFD" transform="translate(489,373)"/>
<path d="M0 0 C3.3 0 6.6 0 10 0 C10 3.3 10 6.6 10 10 C6.7 10 3.4 10 0 10 C0 6.7 0 3.4 0 0 Z " fill="#FEFEFE" transform="translate(53,351)"/>
<path d="M0 0 C3.3 0 6.6 0 10 0 C10 3.3 10 6.6 10 10 C6.7 10 3.4 10 0 10 C0 6.7 0 3.4 0 0 Z " fill="#010101" transform="translate(437,341)"/>
<path d="M0 0 C3.3 0 6.6 0 10 0 C10 3.3 10 6.6 10 10 C6.7 10 3.4 10 0 10 C0 6.7 0 3.4 0 0 Z " fill="#000000" transform="translate(343,331)"/>
<path d="M0 0 C3.3 0 6.6 0 10 0 C10 3.3 10 6.6 10 10 C6.7 10 3.4 10 0 10 C0 6.7 0 3.4 0 0 Z " fill="#010101" transform="translate(177,331)"/>
<path d="M0 0 C3.3 0 6.6 0 10 0 C10 3.3 10 6.6 10 10 C6.7 10 3.4 10 0 10 C0 6.7 0 3.4 0 0 Z " fill="#FDFDFD" transform="translate(1,289)"/>
<path d="M0 0 C3.3 0 6.6 0 10 0 C10 3.3 10 6.6 10 10 C6.7 10 3.4 10 0 10 C0 6.7 0 3.4 0 0 Z " fill="#000000" transform="translate(333,279)"/>
<path d="M0 0 C3.3 0 6.6 0 10 0 C10 3.3 10 6.6 10 10 C6.7 10 3.4 10 0 10 C0 6.7 0 3.4 0 0 Z " fill="#000000" transform="translate(1,279)"/>
<path d="M0 0 C3.3 0 6.6 0 10 0 C10 3.3 10 6.6 10 10 C6.7 10 3.4 10 0 10 C0 6.7 0 3.4 0 0 Z " fill="#010101" transform="translate(395,269)"/>
<path d="M0 0 C3.3 0 6.6 0 10 0 C10 3.3 10 6.6 10 10 C6.7 10 3.4 10 0 10 C0 6.7 0 3.4 0 0 Z " fill="#FDFDFD" transform="translate(125,269)"/>
<path d="M0 0 C3.3 0 6.6 0 10 0 C10 3.3 10 6.6 10 10 C6.7 10 3.4 10 0 10 C0 6.7 0 3.4 0 0 Z " fill="#FDFDFD" transform="translate(105,269)"/>
<path d="M0 0 C3.3 0 6.6 0 10 0 C10 3.3 10 6.6 10 10 C6.7 10 3.4 10 0 10 C0 6.7 0 3.4 0 0 Z " fill="#FDFDFD" transform="translate(1,269)"/>
<path d="M0 0 C3.3 0 6.6 0 10 0 C10 3.3 10 6.6 10 10 C6.7 10 3.4 10 0 10 C0 6.7 0 3.4 0 0 Z " fill="#FDFDFD" transform="translate(219,259)"/>
<path d="M0 0 C3.3 0 6.6 0 10 0 C10 3.3 10 6.6 10 10 C6.7 10 3.4 10 0 10 C0 6.7 0 3.4 0 0 Z " fill="#FDFDFD" transform="translate(33,217)"/>
<path d="M0 0 C3.3 0 6.6 0 10 0 C10 3.3 10 6.6 10 10 C6.7 10 3.4 10 0 10 C0 6.7 0 3.4 0 0 Z " fill="#FEFEFE" transform="translate(271,207)"/>
<path d="M0 0 C3.3 0 6.6 0 10 0 C10 3.3 10 6.6 10 10 C6.7 10 3.4 10 0 10 C0 6.7 0 3.4 0 0 Z " fill="#000000" transform="translate(1,207)"/>
<path d="M0 0 C3.3 0 6.6 0 10 0 C10 3.3 10 6.6 10 10 C6.7 10 3.4 10 0 10 C0 6.7 0 3.4 0 0 Z " fill="#000000" transform="translate(437,175)"/>
<path d="M0 0 C3.3 0 6.6 0 10 0 C10 3.3 10 6.6 10 10 C6.7 10 3.4 10 0 10 C0 6.7 0 3.4 0 0 Z " fill="#FEFEFE" transform="translate(147,175)"/>
<path d="M0 0 C3.3 0 6.6 0 10 0 C10 3.3 10 6.6 10 10 C6.7 10 3.4 10 0 10 C0 6.7 0 3.4 0 0 Z " fill="#000000" transform="translate(63,165)"/>
<path d="M0 0 C3.3 0 6.6 0 10 0 C10 3.3 10 6.6 10 10 C6.7 10 3.4 10 0 10 C0 6.7 0 3.4 0 0 Z " fill="#000000" transform="translate(499,155)"/>
<path d="M0 0 C3.3 0 6.6 0 10 0 C10 3.3 10 6.6 10 10 C6.7 10 3.4 10 0 10 C0 6.7 0 3.4 0 0 Z " fill="#FDFDFD" transform="translate(11,155)"/>
<path d="M0 0 C3.3 0 6.6 0 10 0 C10 3.3 10 6.6 10 10 C6.7 10 3.4 10 0 10 C0 6.7 0 3.4 0 0 Z " fill="#FDFDFD" transform="translate(1,145)"/>
<path d="M0 0 C3.3 0 6.6 0 10 0 C10 3.3 10 6.6 10 10 C6.7 10 3.4 10 0 10 C0 6.7 0 3.4 0 0 Z " fill="#FEFEFE" transform="translate(63,113)"/>
<path d="M0 0 C3.3 0 6.6 0 10 0 C10 3.3 10 6.6 10 10 C6.7 10 3.4 10 0 10 C0 6.7 0 3.4 0 0 Z " fill="#FEFEFE" transform="translate(447,103)"/>
<path d="M0 0 C3.3 0 6.6 0 10 0 C10 3.3 10 6.6 10 10 C6.7 10 3.4 10 0 10 C0 6.7 0 3.4 0 0 Z " fill="#FEFEFE" transform="translate(343,103)"/>
<path d="M0 0 C3.3 0 6.6 0 10 0 C10 3.3 10 6.6 10 10 C6.7 10 3.4 10 0 10 C0 6.7 0 3.4 0 0 Z " fill="#FEFEFE" transform="translate(33,103)"/>
<path d="M0 0 C3.3 0 6.6 0 10 0 C10 3.3 10 6.6 10 10 C6.7 10 3.4 10 0 10 C0 6.7 0 3.4 0 0 Z " fill="#FEFEFE" transform="translate(1,103)"/>
<path d="M0 0 C3.3 0 6.6 0 10 0 C10 3.3 10 6.6 10 10 C6.7 10 3.4 10 0 10 C0 6.7 0 3.4 0 0 Z " fill="#FDFDFD" transform="translate(323,93)"/>
<path d="M0 0 C3.3 0 6.6 0 10 0 C10 3.3 10 6.6 10 10 C6.7 10 3.4 10 0 10 C0 6.7 0 3.4 0 0 Z " fill="#FDFDFD" transform="translate(11,93)"/>
<path d="M0 0 C3.3 0 6.6 0 10 0 C10 3.3 10 6.6 10 10 C6.7 10 3.4 10 0 10 C0 6.7 0 3.4 0 0 Z " fill="#FDFDFD" transform="translate(385,61)"/>
<path d="M0 0 C3.3 0 6.6 0 10 0 C10 3.3 10 6.6 10 10 C6.7 10 3.4 10 0 10 C0 6.7 0 3.4 0 0 Z " fill="#FDFDFD" transform="translate(177,61)"/>
<path d="M0 0 C3.3 0 6.6 0 10 0 C10 3.3 10 6.6 10 10 C6.7 10 3.4 10 0 10 C0 6.7 0 3.4 0 0 Z " fill="#FEFEFE" transform="translate(375,51)"/>
<path d="M0 0 C3.3 0 6.6 0 10 0 C10 3.3 10 6.6 10 10 C6.7 10 3.4 10 0 10 C0 6.7 0 3.4 0 0 Z " fill="#000000" transform="translate(343,51)"/>
<path d="M0 0 C2.64 0 5.28 0 8 0 C8 0.66 8 1.32 8 2 C8.66 2 9.32 2 10 2 C10 4.64 10 7.28 10 10 C6.7 10 3.4 10 0 10 C0 6.7 0 3.4 0 0 Z " fill="#FDFDFD" transform="translate(489,299)"/>
<path d="M0 0 C2.64 0 5.28 0 8 0 C8 0.66 8 1.32 8 2 C8.66 2 9.32 2 10 2 C10 4.64 10 7.28 10 10 C6.7 10 3.4 10 0 10 C0 6.7 0 3.4 0 0 Z " fill="#FEFEFE" transform="translate(95,299)"/>
<path d="M0 0 C2.64 0 5.28 0 8 0 C8 0.66 8 1.32 8 2 C8.66 2 9.32 2 10 2 C10 4.64 10 7.28 10 10 C6.7 10 3.4 10 0 10 C0 6.7 0 3.4 0 0 Z " fill="#FEFEFE" transform="translate(95,237)"/>
<path d="M0 0 C2.64 0 5.28 0 8 0 C8 0.66 8 1.32 8 2 C8.66 2 9.32 2 10 2 C10 4.64 10 7.28 10 10 C6.7 10 3.4 10 0 10 C0 6.7 0 3.4 0 0 Z " fill="#FDFDFD" transform="translate(85,113)"/>
<path d="M0 0 C3.3 0 6.6 0 10 0 C10 3.3 10 6.6 10 10 C7.36 10 4.72 10 2 10 C2 9.34 2 8.68 2 8 C1.34 8 0.68 8 0 8 C0 5.36 0 2.72 0 0 Z " fill="#FDFDFD" transform="translate(395,83)"/>
<path d="M0 0 C2.64 0 5.28 0 8 0 C8 0.66 8 1.32 8 2 C8.66 2 9.32 2 10 2 C10 4.64 10 7.28 10 10 C6.7 10 3.4 10 0 10 C0 6.7 0 3.4 0 0 Z " fill="#FEFEFE" transform="translate(199,61)"/>
<path d="M0 0 C2.64 0 5.28 0 8 0 C8 0.66 8 1.32 8 2 C8.66 2 9.32 2 10 2 C10 4.64 10 7.28 10 10 C6.7 10 3.4 10 0 10 C0 6.7 0 3.4 0 0 Z " fill="#FEFEFE" transform="translate(147,9)"/>
<path d="M0 0 C3.3 0 6.6 0 10 0 C10 2.97 10 5.94 10 9 C6.7 9 3.4 9 0 9 C0 6.03 0 3.06 0 0 Z " fill="#FEFEFE" transform="translate(323,0)"/>
<path d="M0 0 C2.64 0 5.28 0 8 0 C8 0.66 8 1.32 8 2 C8.66 2 9.32 2 10 2 C10 2.66 10 3.32 10 4 C9.34 4 8.68 4 8 4 C8 5.32 8 6.64 8 8 C8.66 8 9.32 8 10 8 C10 8.66 10 9.32 10 10 C6.7 10 3.4 10 0 10 C0 6.7 0 3.4 0 0 Z " fill="#FDFDFD" transform="translate(479,341)"/>
<path d="M0 0 C2.64 0 5.28 0 8 0 C8 3.3 8 6.6 8 10 C5.36 10 2.72 10 0 10 C0 9.34 0 8.68 0 8 C-0.66 8 -1.32 8 -2 8 C-2 7.34 -2 6.68 -2 6 C-1.34 6 -0.68 6 0 6 C0 5.34 0 4.68 0 4 C-0.66 4 -1.32 4 -2 4 C-2 3.34 -2 2.68 -2 2 C-1.34 2 -0.68 2 0 2 C0 1.34 0 0.68 0 0 Z " fill="#FDFDFD" transform="translate(23,331)"/>
<path d="M0 0 C2.64 0 5.28 0 8 0 C8 0.66 8 1.32 8 2 C8.66 2 9.32 2 10 2 C10 2.66 10 3.32 10 4 C9.34 4 8.68 4 8 4 C8 5.32 8 6.64 8 8 C8.66 8 9.32 8 10 8 C10 8.66 10 9.32 10 10 C6.7 10 3.4 10 0 10 C0 6.7 0 3.4 0 0 Z " fill="#FDFDFD" transform="translate(479,185)"/>
<path d="M0 0 C2.64 0 5.28 0 8 0 C8 3.3 8 6.6 8 10 C4.7 10 1.4 10 -2 10 C-2 9.34 -2 8.68 -2 8 C-1.34 8 -0.68 8 0 8 C0 6.68 0 5.36 0 4 C-0.66 4 -1.32 4 -2 4 C-2 3.34 -2 2.68 -2 2 C-1.34 2 -0.68 2 0 2 C0 1.34 0 0.68 0 0 Z " fill="#FDFDFD" transform="translate(137,61)"/>
<path d="M0 0 C2.64 0 5.28 0 8 0 C8 0.66 8 1.32 8 2 C8.66 2 9.32 2 10 2 C10 2.66 10 3.32 10 4 C9.34 4 8.68 4 8 4 C8 5.98 8 7.96 8 10 C5.36 10 2.72 10 0 10 C0 6.7 0 3.4 0 0 Z " fill="#FEFEFE" transform="translate(365,455)"/>
<path d="M0 0 C2.64 0 5.28 0 8 0 C8 3.3 8 6.6 8 10 C5.36 10 2.72 10 0 10 C0 8.02 0 6.04 0 4 C-0.66 4 -1.32 4 -2 4 C-2 3.34 -2 2.68 -2 2 C-1.34 2 -0.68 2 0 2 C0 1.34 0 0.68 0 0 Z " fill="#FDFDFD" transform="translate(137,413)"/>
<path d="M0 0 C2.64 0 5.28 0 8 0 C8 1.98 8 3.96 8 6 C8.66 6 9.32 6 10 6 C10 6.66 10 7.32 10 8 C9.34 8 8.68 8 8 8 C8 8.66 8 9.32 8 10 C5.36 10 2.72 10 0 10 C0 6.7 0 3.4 0 0 Z " fill="#FDFDFD" transform="translate(479,383)"/>
<path d="M0 0 C3.3 0 6.6 0 10 0 C10 0.66 10 1.32 10 2 C9.34 2 8.68 2 8 2 C8 4.64 8 7.28 8 10 C5.36 10 2.72 10 0 10 C0 6.7 0 3.4 0 0 Z " fill="#FDFDFD" transform="translate(365,373)"/>
<path d="M0 0 C2.64 0 5.28 0 8 0 C8 3.3 8 6.6 8 10 C5.36 10 2.72 10 0 10 C0 8.02 0 6.04 0 4 C-0.66 4 -1.32 4 -2 4 C-2 3.34 -2 2.68 -2 2 C-1.34 2 -0.68 2 0 2 C0 1.34 0 0.68 0 0 Z " fill="#FDFDFD" transform="translate(23,227)"/>
<path d="M0 0 C2.64 0 5.28 0 8 0 C8 3.3 8 6.6 8 10 C5.36 10 2.72 10 0 10 C0 6.7 0 3.4 0 0 Z " fill="#FEFEFE" transform="translate(365,487)"/>
<path d="M0 0 C3.3 0 6.6 0 10 0 C10 2.64 10 5.28 10 8 C6.7 8 3.4 8 0 8 C0 5.36 0 2.72 0 0 Z " fill="#FEFEFE" transform="translate(499,477)"/>
<path d="M0 0 C2.64 0 5.28 0 8 0 C8 3.3 8 6.6 8 10 C5.36 10 2.72 10 0 10 C0 6.7 0 3.4 0 0 Z " fill="#FDFDFD" transform="translate(251,465)"/>
<path d="M0 0 C3.3 0 6.6 0 10 0 C10 2.64 10 5.28 10 8 C6.7 8 3.4 8 0 8 C0 5.36 0 2.72 0 0 Z " fill="#FDFDFD" transform="translate(105,249)"/>
<path d="M0 0 C3.3 0 6.6 0 10 0 C10 2.64 10 5.28 10 8 C6.7 8 3.4 8 0 8 C0 5.36 0 2.72 0 0 Z " fill="#FEFEFE" transform="translate(199,135)"/>
<path d="M0 0 C3.3 0 6.6 0 10 0 C10 2.64 10 5.28 10 8 C6.7 8 3.4 8 0 8 C0 5.36 0 2.72 0 0 Z " fill="#FDFDFD" transform="translate(157,21)"/>
</svg>
